<?xml version="1.0" encoding="UTF-8"?>
<!DOCTYPE svg PUBLIC "-//W3C//DTD SVG 1.1//EN" "http://www.w3.org/Graphics/SVG/1.1/DTD/svg11.dtd">
<svg xmlns="http://www.w3.org/2000/svg" version="1.1" width="1024px" height="511px" style="shape-rendering:geometricPrecision; text-rendering:geometricPrecision; image-rendering:optimizeQuality; fill-rule:evenodd; clip-rule:evenodd" xmlns:xlink="http://www.w3.org/1999/xlink">
<g><path style="opacity:0.998" fill="#242d35" d="M -0.5,-0.5 C 340.833,-0.5 682.167,-0.5 1023.5,-0.5C 1023.5,159.833 1023.5,320.167 1023.5,480.5C 682.167,480.5 340.833,480.5 -0.5,480.5C -0.5,320.167 -0.5,159.833 -0.5,-0.5 Z"/></g>
<g><path style="opacity:1" fill="#defaf3" d="M 327.5,47.5 C 358.588,47.0152 389.588,47.5152 420.5,49C 421.659,53.4045 420.659,57.4045 417.5,61C 394.169,61.5 370.836,61.6666 347.5,61.5C 346.529,109.489 346.363,157.489 347,205.5C 339.822,212.692 333.489,212.025 328,203.5C 327.5,151.501 327.333,99.5011 327.5,47.5 Z"/></g>
<g><path style="opacity:1" fill="#a9cac9" d="M 677.5,390.5 C 671.363,394.071 665.363,397.905 659.5,402C 658.748,402.671 658.414,403.504 658.5,404.5C 657.5,405.167 656.5,405.833 655.5,406.5C 650.737,407.052 647.07,409.385 644.5,413.5C 627.112,426.024 607.779,433.857 586.5,437C 544.167,437.667 501.833,437.667 459.5,437C 458.667,436.167 457.833,435.333 457,434.5C 456.501,430.514 456.334,426.514 456.5,422.5C 496.83,421.867 537.163,421.367 577.5,421C 585.558,419.822 593.558,418.322 601.5,416.5C 602.946,417.613 604.613,417.78 606.5,417C 613.027,413.276 619.693,409.943 626.5,407C 629.396,403.934 632.396,401.101 635.5,398.5C 636.659,396.75 638.326,395.75 640.5,395.5C 642.199,395.66 643.866,395.494 645.5,395C 649.659,391.753 653.992,388.753 658.5,386C 659.728,384.51 659.728,383.01 658.5,381.5C 658.833,381.5 659.167,381.5 659.5,381.5C 661.783,381.392 663.783,380.559 665.5,379C 668.272,377.469 670.272,375.302 671.5,372.5C 671.215,361.145 670.215,350.145 668.5,339.5C 668.484,323.146 668.651,306.813 669,290.5C 667.29,284.293 663.457,280.293 657.5,278.5C 649.17,276.188 640.837,273.521 632.5,270.5C 632.027,269.094 631.027,268.427 629.5,268.5C 625.5,264.167 621.5,259.833 617.5,255.5C 613.28,249.935 608.613,244.602 603.5,239.5C 604.972,236.195 607.305,233.695 610.5,232C 617.734,228.216 625.067,224.716 632.5,221.5C 633.167,221.5 633.5,221.167 633.5,220.5C 646.052,214.964 657.218,207.298 667,197.5C 667.667,169.5 667.667,141.5 667,113.5C 661.833,109.667 656.667,105.833 651.5,102C 643.212,98.9066 635.212,95.24 627.5,91C 625.134,90.5604 622.801,90.0604 620.5,89.5C 621.03,84.3617 618.697,81.695 613.5,81.5C 614.091,80.8485 614.757,80.1818 615.5,79.5C 614.559,76.0987 612.559,73.5987 609.5,72C 601.035,66.2892 591.702,62.9559 581.5,62C 540.516,62.6074 499.516,62.6074 458.5,62C 457.667,61.1667 456.833,60.3333 456,59.5C 455.207,55.577 455.374,51.7436 456.5,48C 500.833,47.3333 545.167,47.3333 589.5,48C 604.757,50.9416 619.09,56.2749 632.5,64C 646.5,73.3333 660.5,82.6667 674.5,92C 679.167,95.3333 683.167,99.3333 686.5,104C 687.448,104.483 688.448,104.649 689.5,104.5C 689.5,137.833 689.5,171.167 689.5,204.5C 688.448,204.351 687.448,204.517 686.5,205C 672.782,219.026 657.115,230.359 639.5,239C 638.978,239.561 638.645,240.228 638.5,241C 649.727,250.054 661.394,258.554 673.5,266.5C 674.386,267.325 674.719,268.325 674.5,269.5C 679.615,271.426 684.115,274.426 688,278.5C 688.333,279.5 688.667,280.5 689,281.5C 689.5,314.832 689.667,348.165 689.5,381.5C 688.448,381.351 687.448,381.517 686.5,382C 684.287,385.714 681.287,388.548 677.5,390.5 Z"/></g>
<g><path style="opacity:1" fill="#adcbca" d="M 756.5,51.5 C 759.649,51.2114 762.649,51.7114 765.5,53C 767.64,58.2107 765.806,60.7107 760,60.5C 752.889,59.7044 751.722,56.7044 756.5,51.5 Z"/></g>
<g><path style="opacity:1" fill="#537077" d="M 255.5,51.5 C 259.007,50.9935 262.174,51.6602 265,53.5C 265.538,59.5191 262.705,61.6858 256.5,60C 252.946,57.6363 252.612,54.8029 255.5,51.5 Z"/></g>
<g><path style="opacity:1" fill="#576c6e" d="M 267.5,71.5 C 281.171,71.3334 294.837,71.5001 308.5,72C 303.863,72.8294 299.196,73.3294 294.5,73.5C 285.5,72.8333 276.5,72.1667 267.5,71.5 Z"/></g>
<g><path style="opacity:1" fill="#e6f6f3" d="M 463.5,71.5 C 479.837,71.3334 496.17,71.5001 512.5,72C 515.63,74.128 518.463,76.628 521,79.5C 520.955,86.4982 521.788,93.3315 523.5,100C 520.158,105.335 515.325,108.169 509,108.5C 491.755,108.037 474.588,107.204 457.5,106C 455.391,104.859 453.558,103.359 452,101.5C 451.383,100.551 451.549,99.7175 452.5,99C 471.497,98.5001 490.497,98.3334 509.5,98.5C 509.807,92.9066 509.473,87.4066 508.5,82C 490.167,81.6667 471.833,81.3333 453.5,81C 452.167,79.6667 452.167,78.3333 453.5,77C 456.489,74.3428 459.822,72.5095 463.5,71.5 Z"/></g>
<g><path style="opacity:1" fill="#9dc0bd" d="M 249.5,71.5 C 255.5,71.5 261.5,71.5 267.5,71.5C 276.5,72.1667 285.5,72.8333 294.5,73.5C 288.434,73.8416 282.434,74.675 276.5,76C 269.658,77.7055 269.325,79.0388 275.5,80C 272.854,80.4974 270.187,80.6641 267.5,80.5C 267.827,90.015 267.494,99.3483 266.5,108.5C 266.5,99.1667 266.5,89.8333 266.5,80.5C 262.833,80.5 259.167,80.5 255.5,80.5C 253.167,80.5 250.833,80.5 248.5,80.5C 248.508,77.4552 248.841,74.4552 249.5,71.5 Z"/></g>
<g><path style="opacity:1" fill="#e6f6f5" d="M 371.5,72.5 C 381.506,72.3335 391.506,72.5002 401.5,73C 405.388,75.2215 408.221,78.3882 410,82.5C 410.667,94.5 410.667,106.5 410,118.5C 407.354,123.458 403.187,126.624 397.5,128C 389.833,128.667 382.167,128.667 374.5,128C 370.76,126.71 367.593,124.543 365,121.5C 363.265,107.932 362.598,94.2655 363,80.5C 365.074,76.9231 367.907,74.2565 371.5,72.5 Z"/></g>
<g><path style="opacity:1" fill="#acd6d1" d="M 587.5,78.5 C 586.596,79.209 586.263,80.209 586.5,81.5C 570.513,82.3014 554.513,82.6348 538.5,82.5C 535.724,79.4898 536.058,76.6565 539.5,74C 543.716,72.7964 548.049,72.1298 552.5,72C 561.167,71.3333 569.833,71.3333 578.5,72C 582.24,73.1979 585.24,75.3645 587.5,78.5 Z"/></g>
<g><path style="opacity:1" fill="#5f7679" d="M 249.5,71.5 C 248.841,74.4552 248.508,77.4552 248.5,80.5C 250.833,80.5 253.167,80.5 255.5,80.5C 255.5,80.8333 255.5,81.1667 255.5,81.5C 252.167,81.5 248.833,81.5 245.5,81.5C 244.576,77.1157 245.909,73.7824 249.5,71.5 Z"/></g>
<g><path style="opacity:1" fill="#badeda" d="M 752.5,75.5 C 757.167,75.5 761.833,75.5 766.5,75.5C 766.667,88.5043 766.5,101.504 766,114.5C 762.27,115.46 758.437,115.793 754.5,115.5C 754.5,106.167 754.5,96.8333 754.5,87.5C 750.833,87.5 747.167,87.5 743.5,87.5C 742.833,85.1806 742.666,82.8473 743,80.5C 745.907,78.1317 749.074,76.465 752.5,75.5 Z"/></g>
<g><path style="opacity:1" fill="#809f9f" d="M 587.5,78.5 C 588.79,79.0577 589.623,80.0577 590,81.5C 590.821,88.6791 590.655,95.6791 589.5,102.5C 589.664,99.8127 589.497,97.146 589,94.5C 588.667,96.1667 588.333,97.8333 588,99.5C 587.311,98.6433 586.478,97.9767 585.5,97.5C 581.571,98.4328 577.571,98.7662 573.5,98.5C 573.5,93.5 573.5,88.5 573.5,83.5C 561.655,83.8283 549.988,83.4949 538.5,82.5C 554.513,82.6348 570.513,82.3014 586.5,81.5C 586.263,80.209 586.596,79.209 587.5,78.5 Z"/></g>
<g><path style="opacity:1" fill="#c0e5dd" d="M 255.5,80.5 C 259.167,80.5 262.833,80.5 266.5,80.5C 266.5,89.8333 266.5,99.1667 266.5,108.5C 266.5,110.5 266.5,112.5 266.5,114.5C 262.833,114.5 259.167,114.5 255.5,114.5C 255.5,103.5 255.5,92.5 255.5,81.5C 255.5,81.1667 255.5,80.8333 255.5,80.5 Z"/></g>
<g><path style="opacity:1" fill="#cbf4ef" d="M 445.5,91.5 C 440.629,93.2078 435.629,93.7078 430.5,93C 428.963,91.2927 427.296,89.7927 425.5,88.5C 424.974,85.1922 426.307,83.0255 429.5,82C 433.5,81.3333 437.5,81.3333 441.5,82C 446.752,83.9536 448.085,87.1202 445.5,91.5 Z"/></g>
<g><path style="opacity:1" fill="#e5f5f3" d="M 613.5,81.5 C 618.697,81.695 621.03,84.3617 620.5,89.5C 619.504,89.4142 618.671,89.7476 618,90.5C 617.5,102.162 617.333,113.829 617.5,125.5C 624.5,125.5 631.5,125.5 638.5,125.5C 638.386,118.753 639.053,112.087 640.5,105.5C 643.791,106.382 647.124,107.048 650.5,107.5C 650.018,115.175 649.351,122.841 648.5,130.5C 645.218,132.873 641.552,134.373 637.5,135C 628.756,135.91 620.089,135.576 611.5,134C 611.833,133.667 612.167,133.333 612.5,133C 608.806,130.313 606.306,126.813 605,122.5C 604.333,110.5 604.333,98.5 605,86.5C 607.313,83.9277 610.146,82.261 613.5,81.5 Z"/></g>
<g><path style="opacity:1" fill="#16232f" d="M 392.5,82.5 C 394.198,94.0902 394.532,105.757 393.5,117.5C 388.23,118.451 382.897,118.785 377.5,118.5C 377.167,106.5 376.833,94.5 376.5,82.5C 381.833,82.5 387.167,82.5 392.5,82.5 Z"/></g>
<g><path style="opacity:1" fill="#284046" d="M 392.5,82.5 C 393.833,82.5 395.167,82.5 396.5,82.5C 396.5,94.8333 396.5,107.167 396.5,119.5C 389.978,119.823 383.645,119.49 377.5,118.5C 382.897,118.785 388.23,118.451 393.5,117.5C 394.532,105.757 394.198,94.0902 392.5,82.5 Z"/></g>
<g><path style="opacity:1" fill="#465a62" d="M 425.5,88.5 C 427.296,89.7927 428.963,91.2927 430.5,93C 435.629,93.7078 440.629,93.2078 445.5,91.5C 444.952,93.3936 443.952,95.0603 442.5,96.5C 444.291,97.1698 445.958,97.8365 447.5,98.5C 440.137,98.1694 432.803,98.5027 425.5,99.5C 426.127,100.417 426.461,101.417 426.5,102.5C 425.699,104.042 425.366,105.708 425.5,107.5C 425.167,107.5 424.833,107.5 424.5,107.5C 424.072,103.516 423.739,99.5162 423.5,95.5C 423.529,92.7305 424.195,90.3972 425.5,88.5 Z"/></g>
<g><path style="opacity:1" fill="#779298" d="M 447.5,98.5 C 447.818,103.032 447.485,107.366 446.5,111.5C 445.676,108.236 445.342,104.902 445.5,101.5C 440.103,101.785 434.77,101.451 429.5,100.5C 428.735,101.612 427.735,102.279 426.5,102.5C 426.461,101.417 426.127,100.417 425.5,99.5C 432.803,98.5027 440.137,98.1694 447.5,98.5 Z"/></g>
<g><path style="opacity:1" fill="#a6cbc6" d="M 589.5,102.5 C 588.746,105.091 587.079,106.924 584.5,108C 570.195,109.464 555.862,109.797 541.5,109C 535.89,104.786 536.223,101.453 542.5,99C 552.828,98.5002 563.161,98.3335 573.5,98.5C 577.571,98.7662 581.571,98.4328 585.5,97.5C 586.478,97.9767 587.311,98.6433 588,99.5C 588.333,97.8333 588.667,96.1667 589,94.5C 589.497,97.146 589.664,99.8127 589.5,102.5 Z"/></g>
<g><path style="opacity:1" fill="#c1e4de" d="M 446.5,111.5 C 446.5,113.5 446.5,115.5 446.5,117.5C 478.835,117.333 511.168,117.5 543.5,118C 554.122,119.039 563.788,122.539 572.5,128.5C 577.179,133.679 582.012,138.679 587,143.5C 588.562,145.957 589.562,148.624 590,151.5C 590.395,160.006 590.895,168.506 591.5,177C 591.727,181.077 590.893,184.91 589,188.5C 583.198,193.957 577.032,199.123 570.5,204C 566.326,206.588 561.993,208.921 557.5,211C 524.549,212.472 491.549,212.972 458.5,212.5C 458.528,207.138 458.194,201.805 457.5,196.5C 485.814,197.625 514.147,197.791 542.5,197C 565.913,191.709 574.746,177.209 569,153.5C 563.323,140.895 553.49,134.062 539.5,133C 508.168,132.5 476.835,132.333 445.5,132.5C 445.667,164.168 445.5,195.835 445,227.5C 444.5,228 444,228.5 443.5,229C 437.509,229.499 431.509,229.666 425.5,229.5C 424.686,203.509 424.353,177.509 424.5,151.5C 425.309,148.672 426.309,145.838 427.5,143C 426.232,131.205 425.565,119.371 425.5,107.5C 425.366,105.708 425.699,104.042 426.5,102.5C 427.735,102.279 428.735,101.612 429.5,100.5C 434.77,101.451 440.103,101.785 445.5,101.5C 445.342,104.902 445.676,108.236 446.5,111.5 Z"/></g>
<g><path style="opacity:1" fill="#aac3c0" d="M 424.5,107.5 C 424.833,107.5 425.167,107.5 425.5,107.5C 425.565,119.371 426.232,131.205 427.5,143C 426.309,145.838 425.309,148.672 424.5,151.5C 424.5,136.833 424.5,122.167 424.5,107.5 Z"/></g>
<g><path style="opacity:1" fill="#d9f3f1" d="M 255.5,125.5 C 261.39,124.097 265.723,125.93 268.5,131C 268.138,132.225 267.638,133.391 267,134.5C 262.921,135.629 258.755,135.796 254.5,135C 251.765,131.508 252.098,128.342 255.5,125.5 Z"/></g>
<g><path style="opacity:1" fill="#cbeeed" d="M 755.5,126.5 C 759.839,125.846 763.673,126.846 767,129.5C 768.271,133.166 767.104,135.666 763.5,137C 754.442,138.124 751.775,134.624 755.5,126.5 Z"/></g>
<g><path style="opacity:1" fill="#bde5e2" d="M 382.5,138.5 C 386.603,137.769 390.103,138.769 393,141.5C 393.5,160.497 393.667,179.497 393.5,198.5C 389.563,198.793 385.73,198.46 382,197.5C 381.5,182.17 381.333,166.837 381.5,151.5C 377.833,151.5 374.167,151.5 370.5,151.5C 370.162,148.843 370.829,146.51 372.5,144.5C 375.598,141.957 378.931,139.957 382.5,138.5 Z"/></g>
<g><path style="opacity:1" fill="#e8f8f8" d="M 631.5,144.5 C 635.514,144.334 639.514,144.501 643.5,145C 646.63,147.128 649.463,149.628 652,152.5C 652.094,166.166 651.76,179.832 651,193.5C 650.626,194.416 650.126,195.25 649.5,196C 646.588,197.24 643.921,198.906 641.5,201C 633.5,201.667 625.5,201.667 617.5,201C 613.43,199.266 609.597,197.1 606,194.5C 604.884,186.907 604.384,179.241 604.5,171.5C 604.5,164.658 604.834,157.991 605.5,151.5C 605.56,152.043 605.893,152.376 606.5,152.5C 609.18,149.318 612.513,147.152 616.5,146C 621.684,145.826 626.684,145.326 631.5,144.5 Z"/></g>
<g><path style="opacity:1" fill="#adcbca" d="M 631.5,144.5 C 626.684,145.326 621.684,145.826 616.5,146C 612.513,147.152 609.18,149.318 606.5,152.5C 605.893,152.376 605.56,152.043 605.5,151.5C 608.039,148.81 611.039,146.643 614.5,145C 620.157,144.501 625.824,144.334 631.5,144.5 Z"/></g>
<g><path style="opacity:1" fill="#b7e2de" d="M 247.5,148.5 C 254.841,148.334 262.174,148.5 269.5,149C 272.333,151.167 275.167,153.333 278,155.5C 278.667,166.167 278.667,176.833 278,187.5C 276.035,191.459 272.869,193.959 268.5,195C 262.5,195.667 256.5,195.667 250.5,195C 246.532,194.036 243.365,191.869 241,188.5C 239.356,177.932 238.689,167.265 239,156.5C 241.624,153.559 244.457,150.893 247.5,148.5 Z"/></g>
<g><path style="opacity:1" fill="#afd2d1" d="M 749.5,149.5 C 756.508,149.334 763.508,149.5 770.5,150C 773.562,151.061 776.062,152.894 778,155.5C 778.667,166.5 778.667,177.5 778,188.5C 775.831,192.01 772.664,194.177 768.5,195C 762.167,195.667 755.833,195.667 749.5,195C 744.789,193.619 741.289,190.786 739,186.5C 738.333,177.167 738.333,167.833 739,158.5C 741.489,154.168 744.989,151.168 749.5,149.5 Z"/></g>
<g><path style="opacity:1" fill="#1c2831" d="M 618.5,154.5 C 625.167,154.5 631.833,154.5 638.5,154.5C 638.5,166.833 638.5,179.167 638.5,191.5C 631.833,191.5 625.167,191.5 618.5,191.5C 618.5,179.167 618.5,166.833 618.5,154.5 Z"/></g>
<g><path style="opacity:1" fill="#c4efe7" d="M 508.5,157.5 C 513.814,156.99 518.48,158.49 522.5,162C 524.559,166.648 523.559,170.314 519.5,173C 512.493,175.857 506.326,174.691 501,169.5C 500.333,167.5 500.333,165.5 501,163.5C 503.114,160.879 505.614,158.879 508.5,157.5 Z"/></g>
<g><path style="opacity:1" fill="#1a2a37" d="M 251.5,158.5 C 256.5,158.5 261.5,158.5 266.5,158.5C 265.817,167.818 265.483,177.151 265.5,186.5C 260.833,186.5 256.167,186.5 251.5,186.5C 251.5,177.167 251.5,167.833 251.5,158.5 Z"/></g>
<g><path style="opacity:1" fill="#17252d" d="M 751.5,160.5 C 756.5,160.5 761.5,160.5 766.5,160.5C 766.5,169.167 766.5,177.833 766.5,186.5C 761.5,186.5 756.5,186.5 751.5,186.5C 751.5,177.833 751.5,169.167 751.5,160.5 Z"/></g>
<g><path style="opacity:1" fill="#d8eded" d="M 255.5,206.5 C 259.792,206.035 263.792,206.868 267.5,209C 269.051,212.572 268.051,215.239 264.5,217C 256.193,219.663 252.36,216.83 253,208.5C 253.995,207.934 254.828,207.267 255.5,206.5 Z"/></g>
<g><path style="opacity:1" fill="#d8f0f2" d="M 756.5,206.5 C 761.039,205.957 764.873,207.29 768,210.5C 768.667,212.167 768.667,213.833 768,215.5C 764.126,218.675 759.959,219.175 755.5,217C 752.711,213.225 753.045,209.725 756.5,206.5 Z"/></g>
<g><path style="opacity:1" fill="#bbd6d1" d="M 594.5,209.5 C 598.511,209.502 602.178,210.668 605.5,213C 606.769,215.139 606.769,217.305 605.5,219.5C 600.194,221.778 594.86,221.944 589.5,220C 588.424,218.274 588.257,216.441 589,214.5C 590.73,212.598 592.563,210.931 594.5,209.5 Z"/></g>
<g><path style="opacity:1" fill="#384850" d="M 634.5,211.5 C 629.104,212.011 625.437,214.677 623.5,219.5C 619.533,216.799 619.533,213.966 623.5,211C 627.394,208.875 631.061,209.042 634.5,211.5 Z"/></g>
<g><path style="opacity:1" fill="#e6f5f4" d="M 372.5,210.5 C 381.173,210.334 389.84,210.5 398.5,211C 404.588,212.09 408.421,215.59 410,221.5C 410.667,234.167 410.667,246.833 410,259.5C 407.833,263 405,265.833 401.5,268C 392.242,269.584 382.909,269.917 373.5,269C 369.254,267.802 366.087,265.302 364,261.5C 362.386,247.569 362.053,233.569 363,219.5C 365.406,215.592 368.572,212.592 372.5,210.5 Z"/></g>
<g><path style="opacity:1" fill="#60767c" d="M 634.5,211.5 C 635.871,214.656 635.538,217.656 633.5,220.5C 633.5,221.167 633.167,221.5 632.5,221.5C 629.655,220.656 626.655,219.99 623.5,219.5C 625.437,214.677 629.104,212.011 634.5,211.5 Z"/></g>
<g><path style="opacity:1" fill="#16242f" d="M 377.5,221.5 C 383.833,221.5 390.167,221.5 396.5,221.5C 396.5,234.167 396.5,246.833 396.5,259.5C 390.155,259.347 383.822,259.014 377.5,258.5C 377.5,246.167 377.5,233.833 377.5,221.5 Z"/></g>
<g><path style="opacity:1" fill="#dff1ef" d="M 464.5,222.5 C 480.503,222.333 496.503,222.5 512.5,223C 520.037,224.368 523.704,228.868 523.5,236.5C 522.97,241.83 522.47,247.164 522,252.5C 519.222,255.807 515.722,257.974 511.5,259C 494.5,259.667 477.5,259.667 460.5,259C 456.55,256.885 453.883,253.719 452.5,249.5C 471.488,248.5 490.488,248.167 509.5,248.5C 509.5,243.5 509.5,238.5 509.5,233.5C 491.497,233.667 473.497,233.5 455.5,233C 453.842,232.275 453.342,231.108 454,229.5C 456.998,226.262 460.498,223.929 464.5,222.5 Z"/></g>
<g><path style="opacity:1" fill="#a8d5d2" d="M 542.5,222.5 C 555.837,222.333 569.171,222.5 582.5,223C 587.273,225.023 589.273,228.356 588.5,233C 573.833,233.667 559.167,233.667 544.5,233C 538.552,230.692 537.886,227.192 542.5,222.5 Z"/></g>
<g><path style="opacity:1" fill="#a1bfc0" d="M 424.5,421.5 C 425.117,421.389 425.617,421.056 426,420.5C 426.935,413.198 427.435,405.864 427.5,398.5C 427.286,382.29 426.286,366.29 424.5,350.5C 424.333,316.498 424.5,282.498 425,248.5C 425.5,248 426,247.5 426.5,247C 432.167,246.333 437.833,246.333 443.5,247C 444.416,247.374 445.25,247.874 446,248.5C 446.961,309.52 446.628,370.52 445,431.5C 440.085,433.827 434.918,435.66 429.5,437C 395.502,437.5 361.502,437.667 327.5,437.5C 326.959,429.842 326.459,422.175 326,414.5C 325.333,354.5 325.333,294.5 326,234.5C 332.149,225.064 339.482,224.064 348,231.5C 347.981,295.165 347.814,358.832 347.5,422.5C 373.339,422.831 399.005,422.498 424.5,421.5 Z"/></g>
<g><path style="opacity:1" fill="#7f9898" d="M 266.5,231.5 C 260.755,231.211 255.088,231.711 249.5,233C 246.558,234.957 245.225,237.79 245.5,241.5C 244.842,240.207 244.508,238.707 244.5,237C 244.305,234.648 244.972,232.648 246.5,231C 253.346,230.179 260.013,230.346 266.5,231.5 Z"/></g>
<g><path style="opacity:1" fill="#adcfcd" d="M 750.5,231.5 C 755.833,231.5 761.167,231.5 766.5,231.5C 766.5,244.833 766.5,258.167 766.5,271.5C 762.563,271.793 758.73,271.46 755,270.5C 754.5,261.506 754.334,252.506 754.5,243.5C 751.482,243.665 748.482,243.498 745.5,243C 744.549,239.943 744.216,236.777 744.5,233.5C 746.898,233.741 748.898,233.074 750.5,231.5 Z"/></g>
<g><path style="opacity:1" fill="#a8d1cc" d="M 266.5,231.5 C 266.5,245.167 266.5,258.833 266.5,272.5C 262.5,272.5 258.5,272.5 254.5,272.5C 255.018,262.174 255.351,251.841 255.5,241.5C 252.167,241.5 248.833,241.5 245.5,241.5C 245.225,237.79 246.558,234.957 249.5,233C 255.088,231.711 260.755,231.211 266.5,231.5 Z"/></g>
<g><path style="opacity:1" fill="#b6ddd8" d="M 535.5,248.5 C 553.503,248.333 571.503,248.5 589.5,249C 593.008,254.562 591.342,257.895 584.5,259C 570.506,259.939 556.506,260.273 542.5,260C 536.915,257.979 534.582,254.146 535.5,248.5 Z"/></g>
<g><path style="opacity:1" fill="#8eafaf" d="M 617.5,255.5 C 621.5,259.833 625.5,264.167 629.5,268.5C 625.548,267.728 621.548,267.395 617.5,267.5C 617.5,278.167 617.5,288.833 617.5,299.5C 624.167,299.5 630.833,299.5 637.5,299.5C 638.186,293.766 638.852,287.933 639.5,282C 642.882,281.176 646.216,281.343 649.5,282.5C 649.994,284.026 650.661,285.359 651.5,286.5C 651.666,291.179 651.499,295.845 651,300.5C 648.145,303.35 644.978,305.85 641.5,308C 632.242,309.584 622.909,309.917 613.5,309C 610.853,306.343 607.853,304.177 604.5,302.5C 603.808,301.975 603.308,301.308 603,300.5C 602.333,289.167 602.333,277.833 603,266.5C 606.33,260.649 611.163,256.982 617.5,255.5 Z"/></g>
<g><path style="opacity:1" fill="#23313b" d="M 629.5,268.5 C 631.027,268.427 632.027,269.094 632.5,270.5C 633.655,272.825 635.655,273.992 638.5,274C 637.517,282.415 637.183,290.915 637.5,299.5C 630.833,299.5 624.167,299.5 617.5,299.5C 617.5,288.833 617.5,278.167 617.5,267.5C 621.548,267.395 625.548,267.728 629.5,268.5 Z"/></g>
<g><path style="opacity:1" fill="#859ea0" d="M 546.5,270.5 C 516.833,270.5 487.167,270.5 457.5,270.5C 457.5,271.833 457.5,273.167 457.5,274.5C 456.549,273.081 456.216,271.415 456.5,269.5C 486.671,269.169 516.671,269.502 546.5,270.5 Z"/></g>
<g><path style="opacity:1" fill="#b6d6d4" d="M 546.5,270.5 C 564.154,273.983 578.321,282.983 589,297.5C 589.499,302.155 589.666,306.821 589.5,311.5C 582.967,313.206 576.301,313.872 569.5,313.5C 569.793,304.918 566.459,298.085 559.5,293C 553.992,289.246 547.992,286.58 541.5,285C 513.827,284.833 486.161,284.333 458.5,283.5C 457.593,280.579 457.26,277.579 457.5,274.5C 457.5,273.167 457.5,271.833 457.5,270.5C 487.167,270.5 516.833,270.5 546.5,270.5 Z"/></g>
<g><path style="opacity:1" fill="#627979" d="M 632.5,270.5 C 640.837,273.521 649.17,276.188 657.5,278.5C 655.533,278.261 653.699,278.594 652,279.5C 652.665,281.863 652.498,284.196 651.5,286.5C 650.661,285.359 649.994,284.026 649.5,282.5C 646.216,281.343 642.882,281.176 639.5,282C 638.852,287.933 638.186,293.766 637.5,299.5C 637.183,290.915 637.517,282.415 638.5,274C 635.655,273.992 633.655,272.825 632.5,270.5 Z"/></g>
<g><path style="opacity:1" fill="#afd9d7" d="M 394.5,282.5 C 394,301.163 393.667,319.83 393.5,338.5C 389.443,340.104 385.61,339.77 382,337.5C 381.5,322.837 381.333,308.17 381.5,293.5C 379.393,292.532 377.059,292.198 374.5,292.5C 374.893,289.487 374.226,286.82 372.5,284.5C 378.634,280.622 385.3,279.122 392.5,280C 393.381,280.708 394.047,281.542 394.5,282.5 Z"/></g>
<g><path style="opacity:1" fill="#cfeced" d="M 758.5,280.5 C 767.575,280.267 769.575,283.767 764.5,291C 760.756,291.929 757.256,291.429 754,289.5C 753.053,285.279 754.553,282.279 758.5,280.5 Z"/></g>
<g><path style="opacity:1" fill="#d2e9e9" d="M 257.5,282.5 C 261.182,282.591 264.349,283.924 267,286.5C 268.14,289.528 267.306,291.695 264.5,293C 261.167,293.667 257.833,293.667 254.5,293C 252.604,291.192 252.104,289.025 253,286.5C 254.397,284.93 255.897,283.596 257.5,282.5 Z"/></g>
<g><path style="opacity:1" fill="#13212a" d="M 394.5,282.5 C 395.117,282.611 395.617,282.944 396,283.5C 396.761,293.854 396.594,304.187 395.5,314.5C 397.2,316.9 398.533,319.566 399.5,322.5C 398.469,323.7 397.635,325.034 397,326.5C 396.667,330.5 396.333,334.5 396,338.5C 395.023,339.774 394.189,339.774 393.5,338.5C 393.667,319.83 394,301.163 394.5,282.5 Z"/></g>
<g><path style="opacity:1" fill="#839c99" d="M 372.5,284.5 C 374.226,286.82 374.893,289.487 374.5,292.5C 377.059,292.198 379.393,292.532 381.5,293.5C 377.429,293.766 373.429,293.433 369.5,292.5C 367.77,288.82 368.77,286.154 372.5,284.5 Z"/></g>
<g><path style="opacity:1" fill="#99babc" d="M 769.5,346.5 C 764.737,346.774 760.07,346.441 755.5,345.5C 756.159,343.862 756.826,342.195 757.5,340.5C 759.969,339.832 762.302,339.165 764.5,338.5C 764.23,330.445 764.563,322.445 765.5,314.5C 761.03,313.514 756.363,313.181 751.5,313.5C 751.5,315.5 751.5,317.5 751.5,319.5C 750.771,324.13 750.437,328.797 750.5,333.5C 747.167,333.5 743.833,333.5 740.5,333.5C 740.5,326.167 740.5,318.833 740.5,311.5C 741.658,308.178 743.992,306.012 747.5,305C 755.847,303.036 764.18,303.036 772.5,305C 774.624,306.122 776.457,307.622 778,309.5C 778.667,319.5 778.667,329.5 778,339.5C 776.82,343.847 773.987,346.18 769.5,346.5 Z"/></g>
<g><path style="opacity:1" fill="#acd3ce" d="M 248.5,306.5 C 254.093,306.193 259.593,306.527 265,307.5C 265.5,320.162 265.667,332.829 265.5,345.5C 261.833,345.5 258.167,345.5 254.5,345.5C 253.683,336.191 253.35,326.857 253.5,317.5C 250.5,317.5 247.5,317.5 244.5,317.5C 244.335,314.482 244.502,311.482 245,308.5C 246.302,307.915 247.469,307.249 248.5,306.5 Z"/></g>
<g><path style="opacity:1" fill="#aad7d2" d="M 508.5,309.5 C 518.943,307.782 523.776,312.115 523,322.5C 515.472,328.834 508.139,328.834 501,322.5C 499.409,315.671 501.909,311.337 508.5,309.5 Z"/></g>
<g><path style="opacity:1" fill="#242d35" d="M 765.5,314.5 C 764.563,322.445 764.23,330.445 764.5,338.5C 761.167,338.5 757.833,338.5 754.5,338.5C 754.956,330.515 754.29,322.681 752.5,315C 756.821,314.501 761.154,314.334 765.5,314.5 Z"/></g>
<g><path style="opacity:1" fill="#e1f2f0" d="M 614.5,317.5 C 622.507,317.334 630.507,317.5 638.5,318C 643.739,318.952 648.072,321.452 651.5,325.5C 663.837,363.291 650.837,378.791 612.5,372C 608.942,370.108 606.442,367.275 605,363.5C 604.32,350.829 603.986,338.162 604,325.5C 606.539,321.49 610.039,318.824 614.5,317.5 Z"/></g>
<g><path style="opacity:1" fill="#617a82" d="M 765.5,314.5 C 761.154,314.334 756.821,314.501 752.5,315C 754.29,322.681 754.956,330.515 754.5,338.5C 757.833,338.5 761.167,338.5 764.5,338.5C 762.302,339.165 759.969,339.832 757.5,340.5C 756.826,342.195 756.159,343.862 755.5,345.5C 751.909,345.688 748.576,344.855 745.5,343C 743.84,341.512 742.84,339.679 742.5,337.5C 745.833,337.5 749.167,337.5 752.5,337.5C 752.823,331.31 752.49,325.31 751.5,319.5C 751.5,317.5 751.5,315.5 751.5,313.5C 756.363,313.181 761.03,313.514 765.5,314.5 Z"/></g>
<g><path style="opacity:1" fill="#7d9ca3" d="M 751.5,319.5 C 752.49,325.31 752.823,331.31 752.5,337.5C 749.167,337.5 745.833,337.5 742.5,337.5C 741.326,336.486 740.66,335.153 740.5,333.5C 743.833,333.5 747.167,333.5 750.5,333.5C 750.437,328.797 750.771,324.13 751.5,319.5 Z"/></g>
<g><path style="opacity:1" fill="#16242f" d="M 618.5,328.5 C 624.833,328.5 631.167,328.5 637.5,328.5C 637.832,339.52 637.499,350.52 636.5,361.5C 630.561,362.457 624.561,362.79 618.5,362.5C 618.5,351.167 618.5,339.833 618.5,328.5 Z"/></g>
<g><path style="opacity:1" fill="#b1d5d3" d="M 569.5,329.5 C 575.176,329.334 580.843,329.501 586.5,330C 590.665,331.483 592.165,334.316 591,338.5C 589.859,340.609 588.359,342.442 586.5,344C 580.5,348.667 574.5,353.333 568.5,358C 562.698,360.903 556.698,363.236 550.5,365C 520.5,365.667 490.5,365.667 460.5,365C 458.618,360.477 457.618,355.643 457.5,350.5C 486.87,350.951 516.203,350.451 545.5,349C 553.832,346.754 560.998,342.587 567,336.5C 568.136,334.257 568.97,331.924 569.5,329.5 Z"/></g>
<g><path style="opacity:1" fill="#44555d" d="M 740.5,311.5 C 740.5,318.833 740.5,326.167 740.5,333.5C 740.66,335.153 741.326,336.486 742.5,337.5C 742.84,339.679 743.84,341.512 745.5,343C 748.576,344.855 751.909,345.688 755.5,345.5C 760.07,346.441 764.737,346.774 769.5,346.5C 762.331,348.708 754.998,348.875 747.5,347C 744.89,345.519 742.223,344.352 739.5,343.5C 739.64,341.876 738.973,340.71 737.5,340C 738.191,338.933 738.691,337.766 739,336.5C 739.171,327.99 739.671,319.657 740.5,311.5 Z"/></g>
<g><path style="opacity:1" fill="#839ca1" d="M 424.5,350.5 C 426.286,366.29 427.286,382.29 427.5,398.5C 427.435,405.864 426.935,413.198 426,420.5C 425.617,421.056 425.117,421.389 424.5,421.5C 424.5,397.833 424.5,374.167 424.5,350.5 Z"/></g>
<g><path style="opacity:1" fill="#eaf9f8" d="M 371.5,354.5 C 380.839,354.334 390.173,354.5 399.5,355C 403.241,356.738 406.408,359.238 409,362.5C 410.631,376.406 410.964,390.406 410,404.5C 407.457,407.7 404.291,410.2 400.5,412C 392.214,413.454 383.881,413.787 375.5,413C 369.968,411.003 365.801,407.503 363,402.5C 362.333,389.5 362.333,376.5 363,363.5C 365.094,359.724 367.927,356.724 371.5,354.5 Z"/></g>
<g><path style="opacity:1" fill="#c5e5e6" d="M 758.5,357.5 C 768.296,358.024 770.296,361.857 764.5,369C 760.551,369.927 757.051,369.094 754,366.5C 753.053,362.279 754.553,359.279 758.5,357.5 Z"/></g>
<g><path style="opacity:1" fill="#d3eaeb" d="M 255.5,357.5 C 259.544,356.958 263.211,357.791 266.5,360C 268.376,364.821 266.709,367.821 261.5,369C 256.289,370.232 253.289,368.232 252.5,363C 252.863,360.808 253.863,358.974 255.5,357.5 Z"/></g>
<g><path style="opacity:1" fill="#1b2730" d="M 376.5,364.5 C 383.167,364.5 389.833,364.5 396.5,364.5C 396.5,377.167 396.5,389.833 396.5,402.5C 389.833,402.5 383.167,402.5 376.5,402.5C 376.5,389.833 376.5,377.167 376.5,364.5 Z"/></g>
<g><path style="opacity:1" fill="#89a2a6" d="M 668.5,339.5 C 670.215,350.145 671.215,361.145 671.5,372.5C 670.272,375.302 668.272,377.469 665.5,379C 663.783,380.559 661.783,381.392 659.5,381.5C 659.369,380.761 659.536,380.094 660,379.5C 664.192,377.316 666.858,373.983 668,369.5C 668.5,359.506 668.666,349.506 668.5,339.5 Z"/></g>
<g><path style="opacity:1" fill="#a5c7ca" d="M 468.5,375.5 C 477.5,375.5 486.5,375.5 495.5,375.5C 495.137,377.911 496.137,379.411 498.5,380C 494.283,382.451 489.95,384.285 485.5,385.5C 478.167,385.5 470.833,385.5 463.5,385.5C 460.924,385.278 460.09,383.945 461,381.5C 462.512,378.143 465.012,376.143 468.5,375.5 Z"/></g>
<g><path style="opacity:1" fill="#e1f3f2" d="M 591.5,381.5 C 591.5,382.833 591.5,384.167 591.5,385.5C 587.5,385.5 583.5,385.5 579.5,385.5C 560.164,385.667 540.83,385.5 521.5,385C 520.483,383.951 520.316,382.784 521,381.5C 522.167,379 524,377.167 526.5,376C 544.434,374.374 562.434,374.041 580.5,375C 584.262,377.206 587.929,379.373 591.5,381.5 Z"/></g>
<g><path style="opacity:1" fill="#748f96" d="M 468.5,375.5 C 477.991,374.342 487.658,374.175 497.5,375C 502.4,376.538 504.9,379.704 505,384.5C 503.989,385.337 502.822,385.67 501.5,385.5C 496.167,385.5 490.833,385.5 485.5,385.5C 489.95,384.285 494.283,382.451 498.5,380C 496.137,379.411 495.137,377.911 495.5,375.5C 486.5,375.5 477.5,375.5 468.5,375.5 Z"/></g>
<g><path style="opacity:1" fill="#a0c4c5" d="M 749.5,381.5 C 756.175,381.334 762.842,381.5 769.5,382C 773.066,382.7 775.9,384.533 778,387.5C 779.595,398.093 779.928,408.76 779,419.5C 777.416,423.869 774.583,427.035 770.5,429C 763.5,429.667 756.5,429.667 749.5,429C 745.483,427.969 742.317,425.802 740,422.5C 739.333,411.167 739.333,399.833 740,388.5C 742.79,385.535 745.957,383.202 749.5,381.5 Z"/></g>
<g><path style="opacity:1" fill="#617e88" d="M 245.5,383.5 C 253.316,382.508 261.316,382.174 269.5,382.5C 271.653,385.472 273.319,388.805 274.5,392.5C 272.187,393.273 269.854,393.94 267.5,394.5C 266.335,402.813 266.168,411.147 267,419.5C 267.278,420.416 267.778,421.082 268.5,421.5C 269.649,424.041 269.649,426.541 268.5,429C 263.648,429.815 258.981,429.648 254.5,428.5C 258.167,428.5 261.833,428.5 265.5,428.5C 265.201,414.09 264.701,399.757 264,385.5C 258.006,383.725 251.839,383.058 245.5,383.5 Z"/></g>
<g><path style="opacity:1" fill="#c3e6e1" d="M 591.5,381.5 C 592.833,388.833 592.833,396.167 591.5,403.5C 591.585,402.005 590.919,401.005 589.5,400.5C 585.882,401.319 582.216,401.319 578.5,400.5C 578.221,395.405 578.555,390.405 579.5,385.5C 583.5,385.5 587.5,385.5 591.5,385.5C 591.5,384.167 591.5,382.833 591.5,381.5 Z"/></g>
<g><path style="opacity:1" fill="#e6f3f2" d="M 622.5,384.5 C 629.563,383.113 633.73,385.779 635,392.5C 631.406,395.698 627.239,396.865 622.5,396C 617.178,391.986 617.178,388.152 622.5,384.5 Z"/></g>
<g><path style="opacity:1" fill="#50656b" d="M 463.5,385.5 C 470.833,385.5 478.167,385.5 485.5,385.5C 490.833,385.5 496.167,385.5 501.5,385.5C 495.213,386.078 488.88,387.078 482.5,388.5C 476.094,387.079 469.761,386.079 463.5,385.5 Z"/></g>
<g><path style="opacity:1" fill="#7d959a" d="M 658.5,381.5 C 659.728,383.01 659.728,384.51 658.5,386C 653.992,388.753 649.659,391.753 645.5,395C 643.866,395.494 642.199,395.66 640.5,395.5C 646.823,391.328 652.823,386.661 658.5,381.5 Z"/></g>
<g><path style="opacity:1" fill="#89a9aa" d="M 245.5,383.5 C 251.839,383.058 258.006,383.725 264,385.5C 264.701,399.757 265.201,414.09 265.5,428.5C 261.833,428.5 258.167,428.5 254.5,428.5C 254.179,416.919 254.512,405.419 255.5,394C 250.582,393.805 245.749,393.305 241,392.5C 239.422,387.843 240.922,384.843 245.5,383.5 Z"/></g>
<g><path style="opacity:1" fill="#1a2731" d="M 751.5,392.5 C 756.5,392.5 761.5,392.5 766.5,392.5C 766.5,401.833 766.5,411.167 766.5,420.5C 761.5,420.5 756.5,420.5 751.5,420.5C 751.5,411.167 751.5,401.833 751.5,392.5 Z"/></g>
<g><path style="opacity:1" fill="#3a4d58" d="M 269.5,382.5 C 271.359,383.594 273.359,384.427 275.5,385C 277.65,387.555 277.983,390.388 276.5,393.5C 274.067,394.73 271.567,395.73 269,396.5C 268.5,404.827 268.334,413.16 268.5,421.5C 267.778,421.082 267.278,420.416 267,419.5C 266.168,411.147 266.335,402.813 267.5,394.5C 269.854,393.94 272.187,393.273 274.5,392.5C 273.319,388.805 271.653,385.472 269.5,382.5 Z"/></g>
<g><path style="opacity:1" fill="#556b71" d="M 677.5,390.5 C 674.811,392.844 672.478,395.678 670.5,399C 666.47,400.836 662.47,402.669 658.5,404.5C 658.414,403.504 658.748,402.671 659.5,402C 665.363,397.905 671.363,394.071 677.5,390.5 Z"/></g>
<g><path style="opacity:1" fill="#eafbfa" d="M 578.5,400.5 C 582.216,401.319 585.882,401.319 589.5,400.5C 590.919,401.005 591.585,402.005 591.5,403.5C 590.313,408.186 587.313,411.019 582.5,412C 564.5,412.667 546.5,412.667 528.5,412C 524.658,410.386 521.158,408.219 518,405.5C 517.28,403.888 517.446,402.388 518.5,401C 538.659,401.638 558.659,401.472 578.5,400.5 Z"/></g>
<g><path style="opacity:1" fill="#8ebabb" d="M 464.5,401.5 C 477.504,401.333 490.504,401.5 503.5,402C 505.91,402.758 506.91,404.425 506.5,407C 506.646,409.034 505.98,410.701 504.5,412C 491.89,413.586 479.224,413.92 466.5,413C 461.717,411.058 459.717,407.558 460.5,402.5C 462.099,402.768 463.432,402.434 464.5,401.5 Z"/></g>
<g><path style="opacity:1" fill="#4f686e" d="M 655.5,406.5 C 652.643,410.096 648.976,412.429 644.5,413.5C 647.07,409.385 650.737,407.052 655.5,406.5 Z"/></g>
<g><path style="opacity:1" fill="#849ea2" d="M 635.5,398.5 C 632.396,401.101 629.396,403.934 626.5,407C 619.693,409.943 613.027,413.276 606.5,417C 604.613,417.78 602.946,417.613 601.5,416.5C 611.025,412.399 620.025,407.233 628.5,401C 630.65,399.589 632.984,398.755 635.5,398.5 Z"/></g>
<g><path style="opacity:0.749" fill="#15292c" d="M 683.5,510.5 C 682.5,510.5 681.5,510.5 680.5,510.5C 678.563,509.069 676.73,507.402 675,505.5C 674.333,503.833 674.333,502.167 675,500.5C 678.442,503.432 681.275,506.765 683.5,510.5 Z"/></g>
</svg>
