<?xml version="1.0" encoding="UTF-8"?>
<!DOCTYPE svg PUBLIC "-//W3C//DTD SVG 1.1//EN" "http://www.w3.org/Graphics/SVG/1.1/DTD/svg11.dtd">
<svg xmlns="http://www.w3.org/2000/svg" version="1.1" width="1024px" height="721px" style="shape-rendering:geometricPrecision; text-rendering:geometricPrecision; image-rendering:optimizeQuality; fill-rule:evenodd; clip-rule:evenodd" xmlns:xlink="http://www.w3.org/1999/xlink">
<g><path style="opacity:1" fill="#a9c9c8" d="M 601.5,465.5 C 602.946,466.613 604.613,466.78 606.5,466C 610.221,463.473 614.221,461.473 618.5,460C 620.448,457.333 623.115,455.833 626.5,455.5C 629.52,452.811 632.52,450.144 635.5,447.5C 636.262,445.738 637.596,444.738 639.5,444.5C 641.927,444.477 644.26,443.977 646.5,443C 648.527,440.319 651.193,438.653 654.5,438C 657.242,436.114 658.909,433.614 659.5,430.5C 660.552,430.649 661.552,430.483 662.5,430C 664.809,427.513 667.476,425.513 670.5,424C 671.059,423.275 671.392,422.442 671.5,421.5C 671.215,410.145 670.215,399.145 668.5,388.5C 668.468,372.477 668.634,356.477 669,340.5C 667.916,333.627 664.083,329.294 657.5,327.5C 656.817,325.824 655.483,325.157 653.5,325.5C 652.942,324.21 651.942,323.377 650.5,323C 646.615,322.261 642.948,320.927 639.5,319C 637.19,318.503 634.857,318.337 632.5,318.5C 631.329,317.655 629.995,316.989 628.5,316.5C 624.805,312.474 621.138,308.474 617.5,304.5C 613.942,298.768 609.442,293.768 604,289.5C 603.333,288.5 603.333,287.5 604,286.5C 606.592,283.238 609.759,280.738 613.5,279C 624.906,273.297 636.239,267.63 647.5,262C 653.978,257.023 660.312,251.856 666.5,246.5C 666.833,232.5 667.167,218.5 667.5,204.5C 667.651,189.744 667.151,175.077 666,160.5C 659.755,155.959 653.255,151.792 646.5,148C 639.38,145.962 632.713,142.962 626.5,139C 624.19,138.503 621.857,138.337 619.5,138.5C 620.833,136.167 620.833,133.833 619.5,131.5C 619.288,128.288 617.621,126.288 614.5,125.5C 606.527,117.514 596.861,112.68 585.5,111C 554.165,110.511 522.832,110.677 491.5,111.5C 480.833,111.333 470.167,111.167 459.5,111C 456.111,109.028 454.778,106.028 455.5,102C 455.6,99.6977 456.267,97.6977 457.5,96C 501.167,95.3333 544.833,95.3333 588.5,96C 602.555,98.6846 615.888,103.351 628.5,110C 643.995,120.582 659.662,130.915 675.5,141C 679.682,145.349 684.015,149.515 688.5,153.5C 689.5,186.827 689.833,220.16 689.5,253.5C 687.217,253.608 685.217,254.441 683.5,256C 679.297,260.779 674.63,265.113 669.5,269C 659.259,276.094 648.925,282.927 638.5,289.5C 649.442,298.935 661.109,307.435 673.5,315C 678.283,319.108 683.116,323.275 688,327.5C 689.132,345.292 689.632,363.125 689.5,381C 689.496,397.406 689.163,413.739 688.5,430C 685.192,432.971 681.859,435.971 678.5,439C 675.362,440.403 672.362,442.07 669.5,444C 665.859,447.813 661.859,451.146 657.5,454C 654.417,455.139 651.417,456.472 648.5,458C 644.452,461.716 640.118,465.05 635.5,468C 622.376,475.898 608.376,481.564 593.5,485C 548.856,486.618 504.19,486.952 459.5,486C 458.667,485.167 457.833,484.333 457,483.5C 456.501,479.514 456.334,475.514 456.5,471.5C 494.829,470.843 533.163,470.343 571.5,470C 581.65,469.383 591.65,467.883 601.5,465.5 Z"/></g>
<g><path style="opacity:1" fill="#dcf7f1" d="M 418.5,96.5 C 418.704,99.5176 419.037,102.518 419.5,105.5C 418.976,108.188 417.309,109.688 414.5,110C 392.169,110.5 369.836,110.667 347.5,110.5C 346.647,158.491 346.481,206.491 347,254.5C 340.05,261.025 333.717,260.359 328,252.5C 327.5,200.501 327.333,148.501 327.5,96.5C 357.87,95.3777 388.203,95.3777 418.5,96.5 Z"/></g>
<g><path style="opacity:1" fill="#aaccc5" d="M 418.5,96.5 C 422.116,99.082 422.45,102.082 419.5,105.5C 419.037,102.518 418.704,99.5176 418.5,96.5 Z"/></g>
<g><path style="opacity:1" fill="#b1d0cf" d="M 755.5,100.5 C 758.909,100.249 762.242,100.583 765.5,101.5C 766.641,103.421 766.808,105.421 766,107.5C 762.591,108.622 759.091,108.789 755.5,108C 753.112,105.597 753.112,103.097 755.5,100.5 Z"/></g>
<g><path style="opacity:1" fill="#5a7a80" d="M 258.5,101.5 C 260.98,102.73 263.314,104.23 265.5,106C 262.123,109.017 258.623,109.184 255,106.5C 254.51,105.207 254.343,103.873 254.5,102.5C 256.099,102.768 257.432,102.434 258.5,101.5 Z"/></g>
<g><path style="opacity:1" fill="#a0c3bf" d="M 249.5,120.5 C 251.5,120.5 253.5,120.5 255.5,120.5C 252.107,122.026 250.774,124.693 251.5,128.5C 250.5,128.5 249.5,128.5 248.5,128.5C 248.5,126.167 248.5,123.833 248.5,121.5C 248.5,120.833 248.833,120.5 249.5,120.5 Z"/></g>
<g><path style="opacity:1" fill="#c0e5dd" d="M 255.5,120.5 C 259.167,120.5 262.833,120.5 266.5,120.5C 266.5,133.167 266.5,145.833 266.5,158.5C 266.5,159.833 266.5,161.167 266.5,162.5C 262.833,162.5 259.167,162.5 255.5,162.5C 255.5,151.167 255.5,139.833 255.5,128.5C 254.167,128.5 252.833,128.5 251.5,128.5C 250.774,124.693 252.107,122.026 255.5,120.5 Z"/></g>
<g><path style="opacity:1" fill="#90aaab" d="M 249.5,120.5 C 255.31,119.51 261.31,119.177 267.5,119.5C 267.829,132.677 267.495,145.677 266.5,158.5C 266.5,145.833 266.5,133.167 266.5,120.5C 262.833,120.5 259.167,120.5 255.5,120.5C 253.5,120.5 251.5,120.5 249.5,120.5 Z"/></g>
<g><path style="opacity:1" fill="#e5f5f4" d="M 372.5,120.5 C 382.172,120.334 391.839,120.5 401.5,121C 405.388,123.222 408.221,126.388 410,130.5C 410.667,142.833 410.667,155.167 410,167.5C 407.852,171.846 404.352,174.679 399.5,176C 390.833,176.667 382.167,176.667 373.5,176C 366.149,173.979 362.649,169.146 363,161.5C 362.333,150.833 362.333,140.167 363,129.5C 365.256,125.47 368.422,122.47 372.5,120.5 Z M 376.5,130.5 C 383.18,130.612 389.847,130.946 396.5,131.5C 396.5,143.5 396.5,155.5 396.5,167.5C 390.167,167.5 383.833,167.5 377.5,167.5C 376.906,155.175 376.573,142.842 376.5,130.5 Z"/></g>
<g><path style="opacity:1" fill="#e3f3f0" d="M 495.5,119.5 C 505.699,117.375 514.199,120.042 521,127.5C 521.875,128.873 522.375,130.373 522.5,132C 520.866,137.83 521.199,143.497 523.5,149C 521.993,151.434 519.993,153.434 517.5,155C 497.9,156.836 478.234,156.836 458.5,155C 456.333,153.5 454.167,152 452,150.5C 451.493,149.004 451.993,147.837 453.5,147C 472.164,146.5 490.83,146.333 509.5,146.5C 509.805,141.238 509.471,136.072 508.5,131C 489.927,130.827 471.427,130.327 453,129.5C 453.568,125.248 456.068,122.414 460.5,121C 472.341,120.831 484.007,120.331 495.5,119.5 Z"/></g>
<g><path style="opacity:1" fill="#afd9d3" d="M 586.5,125.5 C 586.5,126.833 586.5,128.167 586.5,129.5C 581.964,129.15 577.631,129.817 573.5,131.5C 561.829,131.667 550.162,131.5 538.5,131C 535.461,127.195 536.128,124.195 540.5,122C 553.43,120.391 566.43,120.058 579.5,121C 582.233,121.904 584.567,123.404 586.5,125.5 Z"/></g>
<g><path style="opacity:1" fill="#b8dbd7" d="M 760.5,123.5 C 762.5,123.5 764.5,123.5 766.5,123.5C 766.667,136.837 766.5,150.171 766,163.5C 762.27,164.46 758.437,164.793 754.5,164.5C 754.5,155.167 754.5,145.833 754.5,136.5C 751.15,136.665 747.817,136.498 744.5,136C 741.111,131.252 742.111,127.919 747.5,126C 751.965,125.126 756.298,124.293 760.5,123.5 Z"/></g>
<g><path style="opacity:1" fill="#678082" d="M 248.5,121.5 C 248.5,123.833 248.5,126.167 248.5,128.5C 249.5,128.5 250.5,128.5 251.5,128.5C 249.735,129.461 247.735,129.795 245.5,129.5C 244.828,126.058 245.828,123.391 248.5,121.5 Z"/></g>
<g><path style="opacity:1" fill="#7e9d9d" d="M 586.5,125.5 C 588.61,126.453 589.777,128.119 590,130.5C 590.821,137.346 590.654,144.013 589.5,150.5C 589.664,147.813 589.497,145.146 589,142.5C 588.667,144.5 588.333,146.5 588,148.5C 587.5,148 587,147.5 586.5,147C 582.179,146.501 577.846,146.334 573.5,146.5C 573.5,141.5 573.5,136.5 573.5,131.5C 577.631,129.817 581.964,129.15 586.5,129.5C 586.5,128.167 586.5,126.833 586.5,125.5 Z"/></g>
<g><path style="opacity:1" fill="#73908c" d="M 614.5,125.5 C 617.621,126.288 619.288,128.288 619.5,131.5C 617.597,131.204 615.93,130.537 614.5,129.5C 615.833,128.167 615.833,126.833 614.5,125.5 Z"/></g>
<g><path style="opacity:1" fill="#c5eee8" d="M 430.5,129.5 C 437.016,128.237 442.516,129.904 447,134.5C 447.667,135.833 447.667,137.167 447,138.5C 441.53,142.329 435.697,143.162 429.5,141C 424.047,136.651 424.38,132.818 430.5,129.5 Z"/></g>
<g><path style="opacity:1" fill="#e3f3f1" d="M 614.5,129.5 C 615.93,130.537 617.597,131.204 619.5,131.5C 620.833,133.833 620.833,136.167 619.5,138.5C 618.883,138.611 618.383,138.944 618,139.5C 617.5,150.828 617.333,162.162 617.5,173.5C 624.5,173.5 631.5,173.5 638.5,173.5C 638.2,166.727 638.867,160.06 640.5,153.5C 643.713,154.427 646.88,155.427 650,156.5C 650.443,163.856 650.11,171.189 649,178.5C 646.531,180.652 643.698,182.152 640.5,183C 631.155,184.78 621.822,184.78 612.5,183C 611.428,180.832 609.595,178.665 607,176.5C 606.333,175.167 605.667,173.833 605,172.5C 604.333,160.167 604.333,147.833 605,135.5C 607.472,132.35 610.639,130.35 614.5,129.5 Z"/></g>
<g><path style="opacity:1" fill="#a3c7c3" d="M 589.5,150.5 C 589.128,154.043 587.128,156.21 583.5,157C 570.166,157.778 556.833,158.111 543.5,158C 538.646,156.618 536.979,153.618 538.5,149C 550.047,146.852 561.714,146.019 573.5,146.5C 577.846,146.334 582.179,146.501 586.5,147C 587,147.5 587.5,148 588,148.5C 588.333,146.5 588.667,144.5 589,142.5C 589.497,145.146 589.664,147.813 589.5,150.5 Z"/></g>
<g><path style="opacity:1" fill="#779298" d="M 446.5,159.5 C 445.701,156.57 445.368,153.57 445.5,150.5C 440.628,150.691 435.795,150.358 431,149.5C 429.167,149.519 427.667,150.185 426.5,151.5C 425.962,149.883 425.629,148.216 425.5,146.5C 432.858,146.418 440.191,146.752 447.5,147.5C 447.817,151.702 447.483,155.702 446.5,159.5 Z"/></g>
<g><path style="opacity:1" fill="#c1e4de" d="M 446.5,159.5 C 446.5,161.833 446.5,164.167 446.5,166.5C 479.502,166.333 512.502,166.5 545.5,167C 554.949,167.816 563.615,170.816 571.5,176C 575.667,181.5 580.5,186.333 586,190.5C 588.702,194.372 590.035,198.705 590,203.5C 590.438,211.004 590.938,218.504 591.5,226C 591.507,229.258 591.007,232.425 590,235.5C 581.308,245.185 571.141,253.018 559.5,259C 557.5,259.667 555.5,260.333 553.5,261C 521.817,261.788 490.15,261.621 458.5,260.5C 457.947,255.518 457.613,250.518 457.5,245.5C 486.502,245.667 515.502,245.5 544.5,245C 558.685,242.647 567.018,234.481 569.5,220.5C 572.642,201.18 564.975,188.68 546.5,183C 512.865,181.55 479.198,181.05 445.5,181.5C 445.782,212.17 445.949,242.837 446,273.5C 445.49,276.005 443.99,277.505 441.5,278C 436.177,278.499 430.844,278.666 425.5,278.5C 424.62,252.178 424.286,225.845 424.5,199.5C 425.485,196.943 426.485,194.276 427.5,191.5C 426.17,179.545 425.503,167.545 425.5,155.5C 425.232,153.901 425.566,152.568 426.5,151.5C 427.667,150.185 429.167,149.519 431,149.5C 435.795,150.358 440.628,150.691 445.5,150.5C 445.368,153.57 445.701,156.57 446.5,159.5 Z"/></g>
<g><path style="opacity:1" fill="#aac3c0" d="M 425.5,155.5 C 425.503,167.545 426.17,179.545 427.5,191.5C 426.485,194.276 425.485,196.943 424.5,199.5C 424.171,184.657 424.504,169.99 425.5,155.5 Z"/></g>
<g><path style="opacity:1" fill="#d3eceb" d="M 257.5,173.5 C 261.803,172.796 265.303,174.13 268,177.5C 268.687,179.92 268.187,182.087 266.5,184C 261.771,184.996 257.271,184.496 253,182.5C 251.422,177.786 252.922,174.786 257.5,173.5 Z"/></g>
<g><path style="opacity:1" fill="#c5e6e6" d="M 756.5,174.5 C 761.917,173.875 765.917,175.875 768.5,180.5C 765.546,185.977 761.213,187.477 755.5,185C 752.615,181.056 752.948,177.556 756.5,174.5 Z"/></g>
<g><path style="opacity:1" fill="#bce4e0" d="M 381.5,187.5 C 384.85,187.335 388.183,187.502 391.5,188C 392,188.5 392.5,189 393,189.5C 393.5,208.497 393.667,227.497 393.5,246.5C 389.563,246.793 385.73,246.46 382,245.5C 381.5,230.504 381.333,215.504 381.5,200.5C 378.15,200.665 374.817,200.498 371.5,200C 369.876,196.794 370.542,194.128 373.5,192C 376.099,190.205 378.766,188.705 381.5,187.5 Z"/></g>
<g><path style="opacity:1" fill="#e8f9f8" d="M 642.5,193.5 C 645.436,195.255 648.269,197.255 651,199.5C 651.333,200.833 651.667,202.167 652,203.5C 652,216.495 651.667,229.495 651,242.5C 647.753,245.719 643.92,248.219 639.5,250C 631.514,249.942 623.514,249.609 615.5,249C 611.722,246.888 608.222,244.388 605,241.5C 604.5,228.171 604.333,214.837 604.5,201.5C 607.787,200.736 610.454,198.903 612.5,196C 614.5,195.333 616.5,194.667 618.5,194C 626.493,193.5 634.493,193.334 642.5,193.5 Z M 618.5,203.5 C 625.167,203.5 631.833,203.5 638.5,203.5C 638.5,215.833 638.5,228.167 638.5,240.5C 631.833,240.5 625.167,240.5 618.5,240.5C 618.5,228.167 618.5,215.833 618.5,203.5 Z"/></g>
<g><path style="opacity:1" fill="#b7e1dd" d="M 250.5,196.5 C 256.176,196.334 261.843,196.501 267.5,197C 271.311,198.407 274.645,200.574 277.5,203.5C 278.666,214.485 278.832,225.485 278,236.5C 276.437,239.728 273.937,241.895 270.5,243C 263.167,243.667 255.833,243.667 248.5,243C 244.725,241.558 241.892,239.058 240,235.5C 239.042,225.175 238.709,214.842 239,204.5C 241.386,203.237 243.219,201.403 244.5,199C 246.611,198.155 248.611,197.322 250.5,196.5 Z M 251.5,207.5 C 256.5,207.5 261.5,207.5 266.5,207.5C 265.959,216.491 265.626,225.491 265.5,234.5C 260.833,234.5 256.167,234.5 251.5,234.5C 251.5,225.5 251.5,216.5 251.5,207.5 Z"/></g>
<g><path style="opacity:1" fill="#a8c4c3" d="M 642.5,193.5 C 634.493,193.334 626.493,193.5 618.5,194C 616.5,194.667 614.5,195.333 612.5,196C 610.454,198.903 607.787,200.736 604.5,201.5C 606.884,199.624 609.218,197.458 611.5,195C 613.392,194.027 615.392,193.36 617.5,193C 626.01,192.177 634.344,192.343 642.5,193.5 Z"/></g>
<g><path style="opacity:1" fill="#afd2d2" d="M 748.5,198.5 C 756.174,198.334 763.841,198.5 771.5,199C 773.333,200.167 775.167,201.333 777,202.5C 778.275,210.739 779.108,219.073 779.5,227.5C 780.213,236.955 775.88,242.455 766.5,244C 756.49,246.122 747.657,243.956 740,237.5C 738.438,227.561 738.105,217.561 739,207.5C 740.832,203.016 743.999,200.016 748.5,198.5 Z M 751.5,208.5 C 756.5,208.5 761.5,208.5 766.5,208.5C 766.5,217.167 766.5,225.833 766.5,234.5C 761.5,234.5 756.5,234.5 751.5,234.5C 751.5,225.833 751.5,217.167 751.5,208.5 Z"/></g>
<g><path style="opacity:1" fill="#d0f8f6" d="M 382.5,201.5 C 383.222,201.918 383.722,202.584 384,203.5C 384.734,207.807 385.234,212.14 385.5,216.5C 384.278,223.443 383.444,230.443 383,237.5C 382.5,225.505 382.333,213.505 382.5,201.5 Z"/></g>
<g><path style="opacity:1" fill="#c2ede5" d="M 507.5,206.5 C 515.413,205.123 521.08,207.956 524.5,215C 522.385,220.654 518.219,223.488 512,223.5C 504.134,223.636 500.467,219.969 501,212.5C 502.872,210.153 505.039,208.153 507.5,206.5 Z"/></g>
<g><path style="opacity:1" fill="#daefee" d="M 257.5,254.5 C 261.587,254.294 265.087,255.627 268,258.5C 268.92,261.308 268.087,263.475 265.5,265C 261.833,265.667 258.167,265.667 254.5,265C 251.216,260.155 252.216,256.655 257.5,254.5 Z"/></g>
<g><path style="opacity:1" fill="#d2eaec" d="M 759.5,254.5 C 764.255,254.872 767.589,257.205 769.5,261.5C 766.042,267.097 761.376,268.431 755.5,265.5C 751.924,259.83 753.258,256.163 759.5,254.5 Z"/></g>
<g><path style="opacity:1" fill="#e5f4f3" d="M 371.5,259.5 C 380.839,259.334 390.173,259.5 399.5,260C 403.468,260.964 406.635,263.131 409,266.5C 410.429,280.474 410.763,294.474 410,308.5C 407.26,312.958 403.427,316.125 398.5,318C 390.833,318.667 383.167,318.667 375.5,318C 365.121,315.113 360.454,308.28 361.5,297.5C 362.159,287.842 362.659,278.176 363,268.5C 364.688,264.315 367.521,261.315 371.5,259.5 Z M 377.5,270.5 C 383.833,270.5 390.167,270.5 396.5,270.5C 396.5,282.833 396.5,295.167 396.5,307.5C 390.167,307.5 383.833,307.5 377.5,307.5C 377.5,295.167 377.5,282.833 377.5,270.5 Z"/></g>
<g><path style="opacity:1" fill="#bad5d0" d="M 594.5,258.5 C 598.986,257.994 602.819,259.328 606,262.5C 606.495,264.473 606.662,266.473 606.5,268.5C 602.67,269.111 598.837,269.777 595,270.5C 589.615,270.326 587.615,267.66 589,262.5C 590.812,261.023 592.645,259.69 594.5,258.5 Z"/></g>
<g><path style="opacity:1" fill="#697e84" d="M 631.5,261.5 C 632.708,262.234 634.041,262.567 635.5,262.5C 635.697,266.806 633.697,268.806 629.5,268.5C 629.767,266.035 630.434,263.701 631.5,261.5 Z"/></g>
<g><path style="opacity:1" fill="#e2f4f2" d="M 463.5,271.5 C 480.17,271.333 496.837,271.5 513.5,272C 517.843,273.01 521.01,275.51 523,279.5C 523.222,286.841 522.889,294.174 522,301.5C 518.468,304.85 514.301,307.016 509.5,308C 493.833,308.667 478.167,308.667 462.5,308C 456.444,306.449 453.11,302.615 452.5,296.5C 471.495,297.049 490.495,297.382 509.5,297.5C 509.5,292.167 509.5,286.833 509.5,281.5C 491.815,281.489 474.148,281.656 456.5,282C 453.211,280.923 452.711,279.09 455,276.5C 457.682,274.415 460.516,272.748 463.5,271.5 Z"/></g>
<g><path style="opacity:1" fill="#abd8d5" d="M 542.5,271.5 C 556.171,271.333 569.837,271.5 583.5,272C 587.655,273.811 589.655,276.977 589.5,281.5C 573.847,282.255 558.18,282.088 542.5,281C 540.354,280.521 539.354,279.188 539.5,277C 539.863,274.808 540.863,272.974 542.5,271.5 Z"/></g>
<g><path style="opacity:1" fill="#a2c0c1" d="M 424.5,470.5 C 425.222,470.082 425.722,469.416 426,468.5C 427.474,447.516 427.474,426.516 426,405.5C 425.809,403.292 425.309,401.292 424.5,399.5C 424.167,365.16 424.5,330.827 425.5,296.5C 432.125,294.642 438.625,294.642 445,296.5C 446.844,357.568 446.844,418.902 445,480.5C 439.459,483.015 433.625,484.848 427.5,486C 394.146,486.3 360.812,486.467 327.5,486.5C 325.984,419.13 325.484,351.463 326,283.5C 331.675,273.339 339.008,272.005 348,279.5C 347.927,343.498 347.761,407.498 347.5,471.5C 373.339,471.831 399.005,471.498 424.5,470.5 Z M 376.5,413.5 C 383.167,413.5 389.833,413.5 396.5,413.5C 396.5,425.833 396.5,438.167 396.5,450.5C 389.833,450.5 383.167,450.5 376.5,450.5C 376.5,438.167 376.5,425.833 376.5,413.5 Z"/></g>
<g><path style="opacity:1" fill="#7d9697" d="M 266.5,279.5 C 260.501,280.097 254.501,280.931 248.5,282C 246.253,283.995 245.253,286.495 245.5,289.5C 247.167,289.5 248.833,289.5 250.5,289.5C 248.735,290.461 246.735,290.795 244.5,290.5C 244.335,287.482 244.502,284.482 245,281.5C 245.5,281 246,280.5 246.5,280C 253.287,278.374 259.954,278.208 266.5,279.5 Z"/></g>
<g><path style="opacity:1" fill="#aad3ce" d="M 266.5,279.5 C 266.5,293.167 266.5,306.833 266.5,320.5C 262.5,320.5 258.5,320.5 254.5,320.5C 254.649,310.159 254.982,299.826 255.5,289.5C 253.833,289.5 252.167,289.5 250.5,289.5C 248.833,289.5 247.167,289.5 245.5,289.5C 245.253,286.495 246.253,283.995 248.5,282C 254.501,280.931 260.501,280.097 266.5,279.5 Z"/></g>
<g><path style="opacity:1" fill="#add0cd" d="M 753.5,279.5 C 757.833,279.5 762.167,279.5 766.5,279.5C 766.5,292.833 766.5,306.167 766.5,319.5C 762.5,319.5 758.5,319.5 754.5,319.5C 754.5,310.167 754.5,300.833 754.5,291.5C 751.167,291.5 747.833,291.5 744.5,291.5C 744.183,288.428 744.516,285.428 745.5,282.5C 748.282,281.484 750.949,280.484 753.5,279.5 Z"/></g>
<g><path style="opacity:1" fill="#b6ddd7" d="M 534.5,297.5 C 553.17,297.333 571.836,297.5 590.5,298C 591.926,300.711 591.592,303.211 589.5,305.5C 587.333,306.792 585,307.625 582.5,308C 569.831,308.723 557.164,309.056 544.5,309C 537.806,308.122 534.473,304.288 534.5,297.5 Z"/></g>
<g><path style="opacity:1" fill="#8eafb0" d="M 617.5,304.5 C 621.138,308.474 624.805,312.474 628.5,316.5C 624.898,315.966 621.398,315.966 618,316.5C 617.5,327.161 617.333,337.828 617.5,348.5C 624.167,348.5 630.833,348.5 637.5,348.5C 638.785,342.706 639.618,336.706 640,330.5C 645.171,328.342 649.004,329.675 651.5,334.5C 651.666,339.511 651.499,344.511 651,349.5C 647.808,352.347 644.308,354.847 640.5,357C 631.887,358.505 623.22,358.839 614.5,358C 610.756,355.045 606.922,352.211 603,349.5C 602.333,338.167 602.333,326.833 603,315.5C 606.085,309.54 610.918,305.873 617.5,304.5 Z"/></g>
<g><path style="opacity:1" fill="#b4d5d3" d="M 456.5,318.5 C 488.541,318.037 520.541,318.537 552.5,320C 567.594,324.798 579.761,333.631 589,346.5C 589.499,351.155 589.666,355.821 589.5,360.5C 583.262,362.173 576.929,362.673 570.5,362C 567.863,348.356 559.863,339.356 546.5,335C 517.209,333.541 487.875,333.041 458.5,333.5C 457.752,328.515 457.085,323.515 456.5,318.5 Z"/></g>
<g><path style="opacity:1" fill="#84aba9" d="M 632.5,318.5 C 634.857,318.337 637.19,318.503 639.5,319C 642.948,320.927 646.615,322.261 650.5,323C 651.942,323.377 652.942,324.21 653.5,325.5C 650.097,325.149 646.763,324.482 643.5,323.5C 639.749,322.027 636.083,320.36 632.5,318.5 Z"/></g>
<g><path style="opacity:1" fill="#677e7f" d="M 643.5,323.5 C 646.763,324.482 650.097,325.149 653.5,325.5C 655.483,325.157 656.817,325.824 657.5,327.5C 655.661,326.248 653.828,326.248 652,327.5C 652.522,329.88 652.355,332.213 651.5,334.5C 649.004,329.675 645.171,328.342 640,330.5C 639.618,336.706 638.785,342.706 637.5,348.5C 637.5,341.167 637.5,333.833 637.5,326.5C 639.5,326.5 641.5,326.5 643.5,326.5C 643.5,325.5 643.5,324.5 643.5,323.5 Z"/></g>
<g><path style="opacity:1" fill="#add7d5" d="M 383.5,387.5 C 385.527,387.662 387.527,387.495 389.5,387C 387.866,386.506 386.199,386.34 384.5,386.5C 384.949,380.648 384.449,374.981 383,369.5C 382.501,374.823 382.334,380.156 382.5,385.5C 381.504,371.343 381.171,357.01 381.5,342.5C 379.393,341.532 377.059,341.198 374.5,341.5C 374.536,338.539 373.536,336.206 371.5,334.5C 377.608,329.524 384.608,327.69 392.5,329C 393,329.5 393.5,330 394,330.5C 394.4,349.508 394.066,368.508 393,387.5C 389.731,388.818 386.565,388.818 383.5,387.5 Z"/></g>
<g><path style="opacity:1" fill="#cce9ea" d="M 757.5,329.5 C 766.387,328.033 769.053,331.199 765.5,339C 761.518,341.144 757.685,340.978 754,338.5C 752.291,334.559 753.458,331.559 757.5,329.5 Z"/></g>
<g><path style="opacity:1" fill="#d0e7e7" d="M 257.5,331.5 C 260.794,331.259 263.794,332.092 266.5,334C 268.975,340.204 266.808,343.037 260,342.5C 253.685,343.189 251.351,340.523 253,334.5C 254.652,333.601 256.152,332.601 257.5,331.5 Z"/></g>
<g><path style="opacity:1" fill="#819895" d="M 371.5,334.5 C 373.536,336.206 374.536,338.539 374.5,341.5C 377.059,341.198 379.393,341.532 381.5,342.5C 377.395,342.766 373.395,342.266 369.5,341C 367.94,338.059 368.607,335.892 371.5,334.5 Z"/></g>
<g><path style="opacity:1" fill="#9abcbd" d="M 755.5,394.5 C 755.54,389.138 758.206,387.138 763.5,388.5C 764.818,380.032 765.485,371.365 765.5,362.5C 760.637,362.181 755.97,362.514 751.5,363.5C 751.5,365.167 751.5,366.833 751.5,368.5C 751.002,373.152 750.669,377.819 750.5,382.5C 747.167,382.5 743.833,382.5 740.5,382.5C 740.811,375.91 740.478,369.41 739.5,363C 740.778,357.172 744.444,353.839 750.5,353C 757.5,352.333 764.5,352.333 771.5,353C 775.027,353.86 777.193,356.027 778,359.5C 778.928,370.24 778.595,380.907 777,391.5C 775.421,393.041 773.587,394.208 771.5,395C 766.162,395.315 760.828,395.148 755.5,394.5 Z"/></g>
<g><path style="opacity:1" fill="#87a6a3" d="M 264.5,355.5 C 258.111,355.308 251.945,356.308 246,358.5C 245.617,357.944 245.117,357.611 244.5,357.5C 250.98,354.627 257.646,353.961 264.5,355.5 Z"/></g>
<g><path style="opacity:1" fill="#afd8d2" d="M 264.5,355.5 C 265.48,368.421 265.814,381.421 265.5,394.5C 261.833,394.5 258.167,394.5 254.5,394.5C 253.852,384.847 253.518,375.18 253.5,365.5C 250.5,365.5 247.5,365.5 244.5,365.5C 244.5,362.833 244.5,360.167 244.5,357.5C 245.117,357.611 245.617,357.944 246,358.5C 251.945,356.308 258.111,355.308 264.5,355.5 Z"/></g>
<g><path style="opacity:1" fill="#acd9d4" d="M 507.5,358.5 C 516.49,355.912 521.823,359.079 523.5,368C 523.375,369.627 522.875,371.127 522,372.5C 516.064,375.767 509.897,376.267 503.5,374C 500.606,371.091 499.773,367.591 501,363.5C 503.071,361.563 505.238,359.896 507.5,358.5 Z"/></g>
<g><path style="opacity:1" fill="#dff0ee" d="M 613.5,366.5 C 622.839,366.334 632.173,366.5 641.5,367C 644.941,368.776 648.108,370.943 651,373.5C 652.628,386.405 652.961,399.405 652,412.5C 649.314,417.432 645.148,420.265 639.5,421C 630.833,421.667 622.167,421.667 613.5,421C 606.615,417.74 603.449,412.24 604,404.5C 603.333,394.5 603.333,384.5 604,374.5C 606.161,370.495 609.328,367.829 613.5,366.5 Z M 618.5,377.5 C 624.833,377.5 631.167,377.5 637.5,377.5C 637.5,388.5 637.5,399.5 637.5,410.5C 631.167,410.5 624.833,410.5 618.5,410.5C 618.5,399.5 618.5,388.5 618.5,377.5 Z"/></g>
<g><path style="opacity:1" fill="#7c9aa2" d="M 751.5,368.5 C 752.49,374.31 752.823,380.31 752.5,386.5C 749.167,386.5 745.833,386.5 742.5,386.5C 741.833,385.167 741.167,383.833 740.5,382.5C 743.833,382.5 747.167,382.5 750.5,382.5C 750.669,377.819 751.002,373.152 751.5,368.5 Z"/></g>
<g><path style="opacity:1" fill="#627c83" d="M 751.5,363.5 C 753.124,371.28 754.124,379.28 754.5,387.5C 757.713,387.19 760.713,387.523 763.5,388.5C 758.206,387.138 755.54,389.138 755.5,394.5C 753.167,394.5 750.833,394.5 748.5,394.5C 748.5,393.5 748.5,392.5 748.5,391.5C 745.31,391.313 743.31,389.646 742.5,386.5C 745.833,386.5 749.167,386.5 752.5,386.5C 752.823,380.31 752.49,374.31 751.5,368.5C 751.5,366.833 751.5,365.167 751.5,363.5 Z"/></g>
<g><path style="opacity:1" fill="#ccf0ee" d="M 383.5,387.5 C 382.662,387.158 382.328,386.492 382.5,385.5C 382.334,380.156 382.501,374.823 383,369.5C 384.449,374.981 384.949,380.648 384.5,386.5C 386.199,386.34 387.866,386.506 389.5,387C 387.527,387.495 385.527,387.662 383.5,387.5 Z"/></g>
<g><path style="opacity:1" fill="#afd4d2" d="M 578.5,377.5 C 582.576,377.68 586.409,378.68 590,380.5C 591.967,383.998 591.633,387.332 589,390.5C 583.232,394.595 577.732,399.095 572.5,404C 556.263,413.871 538.597,417.371 519.5,414.5C 499.167,414.066 478.834,413.732 458.5,413.5C 458.002,408.848 457.669,404.181 457.5,399.5C 486.178,399.643 514.844,399.143 543.5,398C 552.704,396.316 560.538,392.149 567,385.5C 567.931,383.541 568.764,381.541 569.5,379.5C 572.642,378.833 575.642,378.166 578.5,377.5 Z"/></g>
<g><path style="opacity:1" fill="#839ba1" d="M 424.5,399.5 C 425.309,401.292 425.809,403.292 426,405.5C 427.474,426.516 427.474,447.516 426,468.5C 425.722,469.416 425.222,470.082 424.5,470.5C 424.5,446.833 424.5,423.167 424.5,399.5 Z"/></g>
<g><path style="opacity:1" fill="#e7f6f5" d="M 374.5,402.5 C 383.213,402.248 391.88,402.748 400.5,404C 404.903,405.948 408.07,409.114 410,413.5C 410.667,426.833 410.667,440.167 410,453.5C 407.369,457.079 403.869,459.579 399.5,461C 390.806,462.748 382.139,462.748 373.5,461C 368.984,458.847 365.484,455.68 363,451.5C 362.578,449.645 362.078,447.811 361.5,446C 362.301,434.867 362.801,423.7 363,412.5C 365.206,407.167 369.04,403.834 374.5,402.5 Z M 376.5,413.5 C 376.5,425.833 376.5,438.167 376.5,450.5C 383.167,450.5 389.833,450.5 396.5,450.5C 396.5,438.167 396.5,425.833 396.5,413.5C 389.833,413.5 383.167,413.5 376.5,413.5 Z"/></g>
<g><path style="opacity:1" fill="#d4ecec" d="M 255.5,406.5 C 258.978,406.184 262.312,406.684 265.5,408C 267.984,410.284 268.151,412.784 266,415.5C 259.822,420.11 254.989,418.943 251.5,412C 252.036,409.492 253.369,407.659 255.5,406.5 Z"/></g>
<g><path style="opacity:1" fill="#c5e5e6" d="M 760.5,405.5 C 764.417,406.628 767.417,408.962 769.5,412.5C 765.318,417.954 760.151,418.954 754,415.5C 752.923,409.975 755.09,406.641 760.5,405.5 Z"/></g>
<g><path style="opacity:1" fill="#87a0a4" d="M 668.5,388.5 C 670.215,399.145 671.215,410.145 671.5,421.5C 671.392,422.442 671.059,423.275 670.5,424C 667.476,425.513 664.809,427.513 662.5,430C 661.552,430.483 660.552,430.649 659.5,430.5C 658.909,433.614 657.242,436.114 654.5,438C 651.193,438.653 648.527,440.319 646.5,443C 644.26,443.977 641.927,444.477 639.5,444.5C 649.633,438.551 658.8,431.217 667,422.5C 668.409,411.23 668.909,399.896 668.5,388.5 Z"/></g>
<g><path style="opacity:1" fill="#e6f7f7" d="M 591.5,429.5 C 591.5,431.167 591.5,432.833 591.5,434.5C 587.5,434.5 583.5,434.5 579.5,434.5C 569.5,433.167 559.5,433.167 549.5,434.5C 540.161,434.666 530.827,434.5 521.5,434C 520.966,428.496 523.633,425.163 529.5,424C 546.833,423.333 564.167,423.333 581.5,424C 584.7,426.099 588.033,427.933 591.5,429.5 Z"/></g>
<g><path style="opacity:1" fill="#a5c7ca" d="M 468.5,424.5 C 477.525,424.168 486.525,424.502 495.5,425.5C 496.381,426.971 497.714,427.804 499.5,428C 494.415,431.077 489.082,433.243 483.5,434.5C 476.109,434.799 468.776,434.465 461.5,433.5C 461.055,428.586 463.388,425.586 468.5,424.5 Z"/></g>
<g><path style="opacity:1" fill="#77939a" d="M 468.5,424.5 C 473.155,423.834 477.988,423.501 483,423.5C 488.913,423.404 494.746,423.904 500.5,425C 502,426.5 503.5,428 505,429.5C 505.72,431.112 505.554,432.612 504.5,434C 497.584,434.079 490.584,434.245 483.5,434.5C 489.082,433.243 494.415,431.077 499.5,428C 497.714,427.804 496.381,426.971 495.5,425.5C 486.525,424.502 477.525,424.168 468.5,424.5 Z"/></g>
<g><path style="opacity:1" fill="#c3e7e2" d="M 591.5,429.5 C 592.81,436.401 592.81,443.401 591.5,450.5C 587.123,449.343 582.79,449.01 578.5,449.5C 578.5,444.833 578.5,440.167 578.5,435.5C 579.167,435.5 579.5,435.167 579.5,434.5C 583.5,434.5 587.5,434.5 591.5,434.5C 591.5,432.833 591.5,431.167 591.5,429.5 Z"/></g>
<g><path style="opacity:1" fill="#a1c6c7" d="M 771.5,476.5 C 769.757,475.914 767.924,475.581 766,475.5C 760.971,477.004 755.804,477.67 750.5,477.5C 745.738,477.037 742.238,474.704 740,470.5C 739.333,459.833 739.333,449.167 740,438.5C 741.465,435.701 743.632,433.535 746.5,432C 755.507,428.748 764.507,428.748 773.5,432C 775.333,433.167 776.833,434.667 778,436.5C 778.882,446.828 779.216,457.162 779,467.5C 778.084,471.908 775.584,474.908 771.5,476.5 Z M 751.5,440.5 C 756.5,440.5 761.5,440.5 766.5,440.5C 766.666,449.839 766.5,459.173 766,468.5C 761.263,469.469 756.43,469.803 751.5,469.5C 751.5,459.833 751.5,450.167 751.5,440.5 Z"/></g>
<g><path style="opacity:1" fill="#627f88" d="M 265.5,450.5 C 264.206,448.952 263.539,446.952 263.5,444.5C 263.947,440.812 264.114,437.146 264,433.5C 258.4,432.854 252.9,432.187 247.5,431.5C 254.82,430.204 262.154,430.204 269.5,431.5C 271.361,433.745 272.361,436.412 272.5,439.5C 270.097,439.393 268.264,440.393 267,442.5C 266.547,445.606 266.047,448.273 265.5,450.5 Z"/></g>
<g><path style="opacity:1" fill="#a8b7b9" d="M 549.5,434.5 C 559.5,433.167 569.5,433.167 579.5,434.5C 579.5,435.167 579.167,435.5 578.5,435.5C 569.014,434.506 559.348,434.173 549.5,434.5 Z"/></g>
<g><path style="opacity:1" fill="#e0edec" d="M 625.5,432.5 C 631.55,432.72 634.716,435.72 635,441.5C 627.931,447.629 622.097,446.795 617.5,439C 619.203,435.446 621.87,433.279 625.5,432.5 Z"/></g>
<g><path style="opacity:1" fill="#89a9aa" d="M 247.5,431.5 C 252.9,432.187 258.4,432.854 264,433.5C 264.114,437.146 263.947,440.812 263.5,444.5C 263.539,446.952 264.206,448.952 265.5,450.5C 265.5,455.833 265.5,461.167 265.5,466.5C 265.5,470.167 265.5,473.833 265.5,477.5C 261.833,477.5 258.167,477.5 254.5,477.5C 254.179,465.919 254.512,454.419 255.5,443C 250.481,442.589 245.481,442.089 240.5,441.5C 239.702,435.966 242.035,432.633 247.5,431.5 Z"/></g>
<g><path style="opacity:1" fill="#e3f4f3" d="M 591.5,450.5 C 590.988,457.177 587.322,460.677 580.5,461C 563.833,461.667 547.167,461.667 530.5,461C 526.755,459.63 523.088,457.963 519.5,456C 517.398,454.267 517.065,452.267 518.5,450C 538.497,449.5 558.497,449.333 578.5,449.5C 582.79,449.01 587.123,449.343 591.5,450.5 Z"/></g>
<g><path style="opacity:1" fill="#91bebe" d="M 480.5,449.5 C 488.253,449.104 495.92,449.604 503.5,451C 505.91,451.758 506.91,453.425 506.5,456C 506.91,458.575 505.91,460.242 503.5,461C 490.833,461.667 478.167,461.667 465.5,461C 461.125,459.299 459.458,456.133 460.5,451.5C 467.332,451.049 473.998,450.383 480.5,449.5 Z"/></g>
<g><path style="opacity:1" fill="#87a1a5" d="M 635.5,447.5 C 632.52,450.144 629.52,452.811 626.5,455.5C 623.115,455.833 620.448,457.333 618.5,460C 614.221,461.473 610.221,463.473 606.5,466C 604.613,466.78 602.946,466.613 601.5,465.5C 611.561,461.3 620.894,455.8 629.5,449C 631.436,448.187 633.436,447.687 635.5,447.5 Z"/></g>
<g><path style="opacity:1" fill="#6a8a94" d="M 265.5,466.5 C 268.695,469.404 270.028,473.071 269.5,477.5C 268.167,477.5 266.833,477.5 265.5,477.5C 265.5,473.833 265.5,470.167 265.5,466.5 Z"/></g>
<g><path style="opacity:1" fill="#85b0b8" d="M 771.5,476.5 C 771.082,477.222 770.416,477.722 769.5,478C 762.986,478.82 756.653,478.653 750.5,477.5C 755.804,477.67 760.971,477.004 766,475.5C 767.924,475.581 769.757,475.914 771.5,476.5 Z"/></g>
<g><path style="opacity:1" fill="#ebf7f5" d="M 640.5,516.5 C 644.509,516.858 648.509,517.358 652.5,518C 661.455,529.402 669.289,541.569 676,554.5C 679.667,557.5 683.333,560.5 687,563.5C 688.814,565.715 689.314,568.048 688.5,570.5C 663.54,571.353 638.54,572.02 613.5,572.5C 607.588,572.49 601.755,572.156 596,571.5C 594.886,567.05 595.72,563.05 598.5,559.5C 602.22,557.232 606.22,555.566 610.5,554.5C 617.774,542.563 625.44,530.896 633.5,519.5C 635.764,518.131 638.097,517.131 640.5,516.5 Z M 639.5,545.5 C 647.12,545.786 651.12,549.786 651.5,557.5C 646.156,557.666 640.823,557.499 635.5,557C 635.167,556.667 634.833,556.333 634.5,556C 636.05,552.402 637.716,548.902 639.5,545.5 Z"/></g>
<g><path style="opacity:1" fill="#e9f6f4" d="M 162.5,538.5 C 162.5,540.167 162.5,541.833 162.5,543.5C 160.473,543.338 158.473,543.505 156.5,544C 155.944,544.383 155.611,544.883 155.5,545.5C 150.833,545.5 146.167,545.5 141.5,545.5C 140.833,536.5 140.167,527.5 139.5,518.5C 153.503,518.333 167.503,518 181.5,517.5C 193.052,516.287 204.052,518.121 214.5,523C 224.77,530.782 226.937,540.282 221,551.5C 218.586,553.291 216.086,554.957 213.5,556.5C 217.159,559.327 220.326,562.66 223,566.5C 227.192,583.27 221.026,593.77 204.5,598C 183.169,598.5 161.836,598.667 140.5,598.5C 140.5,590.167 140.5,581.833 140.5,573.5C 147.799,574.35 155.132,574.683 162.5,574.5C 162.5,577.5 162.5,580.5 162.5,583.5C 174.562,583.915 186.562,583.415 198.5,582C 203.381,577.625 203.715,572.958 199.5,568C 177.255,566.688 154.922,566.021 132.5,566C 130.317,561.433 129.317,556.599 129.5,551.5C 150.504,551.235 171.504,550.735 192.5,550C 202.17,547.651 203.837,542.651 197.5,535C 186.121,534.812 174.787,534.312 163.5,533.5C 162.548,535.045 162.215,536.712 162.5,538.5 Z"/></g>
<g><path style="opacity:1" fill="#ebf8f5" d="M 265.5,517.5 C 268.136,518.119 270.636,519.119 273,520.5C 273.5,529.16 273.666,537.827 273.5,546.5C 265.846,545.331 258.179,545.331 250.5,546.5C 250.334,537.827 250.5,529.16 251,520.5C 251.5,520 252,519.5 252.5,519C 257.019,518.825 261.353,518.325 265.5,517.5 Z"/></g>
<g><path style="opacity:1" fill="#e8f6f4" d="M 295.5,518.5 C 322.833,518.5 350.167,518.5 377.5,518.5C 377.5,523.833 377.5,529.167 377.5,534.5C 350.167,534.5 322.833,534.5 295.5,534.5C 295.5,529.167 295.5,523.833 295.5,518.5 Z"/></g>
<g><path style="opacity:1" fill="#e6f5f4" d="M 421.5,517.5 C 432.505,517.333 443.505,517.5 454.5,518C 464.223,518.612 472.057,522.778 478,530.5C 479.316,533.688 479.816,537.022 479.5,540.5C 471.444,540.198 463.444,540.531 455.5,541.5C 454.056,539.392 453.39,537.059 453.5,534.5C 443.828,534.334 434.161,534.5 424.5,535C 420.367,535.801 418.534,538.301 419,542.5C 418.5,550.493 418.334,558.493 418.5,566.5C 411.245,566.813 404.079,566.48 397,565.5C 395.41,555.574 395.077,545.574 396,535.5C 396.118,530.797 397.951,526.964 401.5,524C 407.718,520.093 414.385,517.926 421.5,517.5 Z"/></g>
<g><path style="opacity:1" fill="#e7f7f4" d="M 535.5,517.5 C 548.172,516.284 560.172,518.451 571.5,524C 577.78,528.758 580.446,535.091 579.5,543C 578.704,557.295 571.037,564.795 556.5,565.5C 556.351,566.552 556.517,567.552 557,568.5C 566.018,578.017 574.851,587.684 583.5,597.5C 574.078,600.285 564.745,600.118 555.5,597C 550.153,591.798 545.653,585.965 542,579.5C 538.019,576.687 534.519,573.353 531.5,569.5C 527.697,567.739 523.697,566.739 519.5,566.5C 520.404,577.135 520.737,587.802 520.5,598.5C 513.167,598.5 505.833,598.5 498.5,598.5C 498.667,587.828 498.5,577.161 498,566.5C 494.473,562.446 492.306,557.78 491.5,552.5C 512.571,552.483 533.571,551.65 554.5,550C 559.545,542.973 558.212,537.639 550.5,534C 540.506,533.5 530.506,533.334 520.5,533.5C 520.5,537.5 520.5,541.5 520.5,545.5C 513.5,545.5 506.5,545.5 499.5,545.5C 498.585,536.54 498.252,527.54 498.5,518.5C 511.011,518.829 523.345,518.495 535.5,517.5 Z"/></g>
<g><path style="opacity:1" fill="#eaf6f5" d="M 775.5,563.5 C 771.427,565.135 767.094,566.135 762.5,566.5C 745.163,566.667 727.83,566.5 710.5,566C 706.613,562.34 705.113,557.84 706,552.5C 708.381,551.565 710.881,551.232 713.5,551.5C 717.224,552.227 719.891,550.894 721.5,547.5C 718.914,546.52 716.247,546.187 713.5,546.5C 713.5,537.167 713.5,527.833 713.5,518.5C 737.833,518.5 762.167,518.5 786.5,518.5C 786.5,523.833 786.5,529.167 786.5,534.5C 769.5,534.5 752.5,534.5 735.5,534.5C 735.5,539.833 735.5,545.167 735.5,550.5C 748.517,550.168 761.517,550.501 774.5,551.5C 775.433,555.429 775.766,559.429 775.5,563.5 Z"/></g>
<g><path style="opacity:1" fill="#edf9f9" d="M 803.5,518.5 C 831.167,518.5 858.833,518.5 886.5,518.5C 886.5,523.833 886.5,529.167 886.5,534.5C 858.827,533.366 831.16,533.366 803.5,534.5C 803.5,529.167 803.5,523.833 803.5,518.5 Z"/></g>
<g><path style="opacity:1" fill="#b2cecd" d="M 162.5,538.5 C 163.468,540.607 163.802,542.941 163.5,545.5C 160.833,545.5 158.167,545.5 155.5,545.5C 155.611,544.883 155.944,544.383 156.5,544C 158.473,543.505 160.473,543.338 162.5,543.5C 162.5,541.833 162.5,540.167 162.5,538.5 Z"/></g>
<g><path style="opacity:1" fill="#e4f3f4" d="M 325.5,540.5 C 332.833,540.5 340.167,540.5 347.5,540.5C 347.5,559.833 347.5,579.167 347.5,598.5C 339.833,598.5 332.167,598.5 324.5,598.5C 324.518,579.16 324.851,559.827 325.5,540.5 Z"/></g>
<g><path style="opacity:1" fill="#eaf7f6" d="M 850.5,540.5 C 852.5,540.5 854.5,540.5 856.5,540.5C 856.5,559.833 856.5,579.167 856.5,598.5C 848.833,598.5 841.167,598.5 833.5,598.5C 833.5,579.833 833.5,561.167 833.5,542.5C 839.339,542.102 845.006,541.435 850.5,540.5 Z"/></g>
<g><path style="opacity:1" fill="#c5e1db" d="M 713.5,546.5 C 716.247,546.187 718.914,546.52 721.5,547.5C 719.891,550.894 717.224,552.227 713.5,551.5C 713.5,549.833 713.5,548.167 713.5,546.5 Z"/></g>
<g><path style="opacity:1" fill="#e7f5f4" d="M 249.5,553.5 C 257.5,553.5 265.5,553.5 273.5,553.5C 273.768,568.529 273.434,583.529 272.5,598.5C 265.167,598.5 257.833,598.5 250.5,598.5C 249.834,583.509 249.5,568.509 249.5,553.5 Z"/></g>
<g><path style="opacity:1" fill="#ccd8d7" d="M 775.5,563.5 C 776.404,564.209 776.737,565.209 776.5,566.5C 771.833,566.5 767.167,566.5 762.5,566.5C 767.094,566.135 771.427,565.135 775.5,563.5 Z"/></g>
<g><path style="opacity:1" fill="#e8f6f4" d="M 455.5,571.5 C 463.42,571.185 471.253,571.518 479,572.5C 481.906,582.061 479.073,589.228 470.5,594C 468.283,595.275 465.949,596.275 463.5,597C 447.546,598.588 431.546,598.921 415.5,598C 408.261,595.429 402.095,591.263 397,585.5C 396.24,581.775 396.407,578.108 397.5,574.5C 404.833,573.167 412.167,573.167 419.5,574.5C 420.189,576.444 420.689,578.444 421,580.5C 421.75,581.126 422.584,581.626 423.5,582C 433.167,582.667 442.833,582.667 452.5,582C 453.416,581.626 454.25,581.126 455,580.5C 455.498,577.518 455.665,574.518 455.5,571.5 Z"/></g>
<g><path style="opacity:1" fill="#e4f1f0" d="M 726.5,573.5 C 729.167,573.5 731.833,573.5 734.5,573.5C 735.124,581.819 735.457,590.152 735.5,598.5C 728.167,598.5 720.833,598.5 713.5,598.5C 712.901,590.514 712.568,582.514 712.5,574.5C 717.363,574.819 722.03,574.486 726.5,573.5 Z"/></g>
<g><path style="opacity:1" fill="#e0efee" d="M 677.5,578.5 C 680.187,578.336 682.854,578.503 685.5,579C 689,583.833 692.5,588.667 696,593.5C 697.009,595.025 697.509,596.692 697.5,598.5C 689.16,598.666 680.827,598.5 672.5,598C 668.232,592.295 664.899,586.128 662.5,579.5C 667.695,579.821 672.695,579.487 677.5,578.5 Z"/></g>
<g><path style="opacity:1" fill="#8e9f9f" d="M 596.5,580.5 C 597.833,581.167 597.833,581.167 596.5,580.5 Z"/></g>
<g><path style="opacity:1" fill="#e8f5f4" d="M 612.5,597.5 C 604.316,597.826 596.316,597.492 588.5,596.5C 590.554,590.104 594.22,584.77 599.5,580.5C 606.803,579.503 614.137,579.169 621.5,579.5C 621.675,587.15 618.675,593.15 612.5,597.5 Z"/></g>
<g><path style="opacity:1" fill="#939fa2" d="M 594.5,581.5 C 595.525,581.897 595.692,582.563 595,583.5C 594.536,582.906 594.369,582.239 594.5,581.5 Z"/></g>
<g><path style="opacity:1" fill="#96a0a3" d="M 588.5,596.5 C 596.316,597.492 604.316,597.826 612.5,597.5C 604.324,598.821 595.991,598.821 587.5,597.5C 587.624,596.893 587.957,596.56 588.5,596.5 Z"/></g>
</svg>
